/* XPM */
static char * bushbb_xpm[] = {
"32 32 557 2",
"  	c #CEBC1F",
". 	c #CEBE1F",
"+ 	c #CDBC1F",
"@ 	c #BFAF1C",
"# 	c #C3B41C",
"$ 	c #D1C127",
"% 	c #C9C012",
"& 	c #C8BC12",
"* 	c #C7BC12",
"= 	c #C9BC12",
"- 	c #A69D0D",
"; 	c #B0A60E",
"> 	c #CBC013",
", 	c #BCB010",
"' 	c #B4A80F",
") 	c #C7BA12",
"! 	c #CBBA18",
"~ 	c #B6B00F",
"{ 	c #C0B410",
"] 	c #C8BE12",
"^ 	c #BEB410",
"/ 	c #ADA30E",
"( 	c #B4AA0E",
"_ 	c #C9BE12",
": 	c #C6B61D",
"< 	c #C6B917",
"[ 	c #B2A221",
"} 	c #B0A020",
"| 	c #AFA115",
"1 	c #B2A415",
"2 	c #AEA30E",
"3 	c #B9AF0F",
"4 	c #C0B510",
"5 	c #C5BA11",
"6 	c #BAA815",
"7 	c #B7AD0F",
"8 	c #BFB410",
"9 	c #A59D0D",
"0 	c #99940B",
"a 	c #B4AA0F",
"b 	c #C2B01C",
"c 	c #B98D30",
"d 	c #B3902F",
"e 	c #AC801B",
"f 	c #BB8827",
"g 	c #B38329",
"h 	c #AF8330",
"i 	c #B6962E",
"j 	c #BA8D2E",
"k 	c #BD9130",
"l 	c #BDA12E",
"m 	c #ABA20D",
"n 	c #B8AD0F",
"o 	c #C1B511",
"p 	c #B3A80F",
"q 	c #C5B911",
"r 	c #BAAB15",
"s 	c #C4B911",
"t 	c #C0B511",
"u 	c #AAA20D",
"v 	c #B2942B",
"w 	c #B98C27",
"x 	c #B48826",
"y 	c #AD8020",
"z 	c #AF7F22",
"A 	c #AC7D21",
"B 	c #B78422",
"C 	c #AA7F1E",
"D 	c #B08025",
"E 	c #AB7E22",
"F 	c #AA7E22",
"G 	c #A77C20",
"H 	c #B58124",
"I 	c #B18026",
"J 	c #BC9D34",
"K 	c #CCBE19",
"L 	c #97950B",
"M 	c #AFA50E",
"N 	c #C3B711",
"O 	c #BFAF22",
"P 	c #A78129",
"Q 	c #B28023",
"R 	c #B08023",
"S 	c #A47B21",
"T 	c #A67C21",
"U 	c #A97D22",
"V 	c #A27A20",
"W 	c #A37B21",
"X 	c #A17A20",
"Y 	c #A87D22",
"Z 	c #AC7E22",
"` 	c #BAA037",
" .	c #CBBA19",
"..	c #9F9D0C",
"+.	c #A49B0C",
"@.	c #BAAF10",
"#.	c #BEAE22",
"$.	c #AC842C",
"%.	c #AA7C20",
"&.	c #9B771F",
"*.	c #95751D",
"=.	c #93741D",
"-.	c #A37A21",
";.	c #8F721C",
">.	c #96751E",
",.	c #AC7D20",
"'.	c #AD8530",
").	c #C4B61A",
"!.	c #C6BC12",
"~.	c #C8B918",
"{.	c #BBB410",
"].	c #C6BA11",
"^.	c #C6BA12",
"/.	c #B7AA1F",
"(.	c #AB832B",
"_.	c #B98324",
":.	c #BB8527",
"<.	c #AE8024",
"[.	c #A57C21",
"}.	c #90731C",
"|.	c #886F1B",
"1.	c #9A771F",
"2.	c #8E711C",
"3.	c #92731D",
"4.	c #8A701B",
"5.	c #8D711C",
"6.	c #9D7820",
"7.	c #A77C22",
"8.	c #A57B21",
"9.	c #A87C21",
"0.	c #A28626",
"a.	c #BCAF11",
"b.	c #BEB016",
"c.	c #C4B915",
"d.	c #947A23",
"e.	c #A3791E",
"f.	c #B68326",
"g.	c #BD8627",
"h.	c #B78326",
"i.	c #99761F",
"j.	c #97761E",
"k.	c #8E721C",
"l.	c #866E1B",
"m.	c #896F1B",
"n.	c #89701B",
"o.	c #896F1C",
"p.	c #8C711C",
"q.	c #B08024",
"r.	c #B38125",
"s.	c #A27B1E",
"t.	c #B6AA12",
"u.	c #98940B",
"v.	c #9F980C",
"w.	c #B6AB0F",
"x.	c #AD9E13",
"y.	c #C6BE12",
"z.	c #C4B41E",
"A.	c #A38C3C",
"B.	c #9F8A2F",
"C.	c #A17A22",
"D.	c #B28124",
"E.	c #9D781F",
"F.	c #99761E",
"G.	c #7D6919",
"H.	c #7F6A1A",
"I.	c #7C691A",
"J.	c #7A6819",
"K.	c #846D1A",
"L.	c #866D1B",
"M.	c #9E7820",
"N.	c #A27A21",
"O.	c #BA8427",
"P.	c #B98426",
"Q.	c #B18124",
"R.	c #9B852F",
"S.	c #978634",
"T.	c #9B9413",
"U.	c #A29B0C",
"V.	c #A49512",
"W.	c #C1BA11",
"X.	c #B1A414",
"Y.	c #A28B33",
"Z.	c #9C771C",
"`.	c #A57B20",
" +	c #AF8024",
".+	c #B08125",
"++	c #95741E",
"@+	c #8B6F1C",
"#+	c #816B1A",
"$+	c #896E1C",
"%+	c #8A6F1C",
"&+	c #B58326",
"*+	c #BC8527",
"=+	c #9D771D",
"-+	c #9B8929",
";+	c #BBB011",
">+	c #BCB210",
",+	c #C0AF17",
"'+	c #ACA60D",
")+	c #A79E0D",
"!+	c #9B940B",
"~+	c #ACA012",
"{+	c #A38633",
"]+	c #A47B1F",
"^+	c #96741F",
"/+	c #A67C22",
"(+	c #AE7F24",
"_+	c #B48225",
":+	c #A07920",
"<+	c #A77D22",
"[+	c #A07A20",
"}+	c #AE7E20",
"|+	c #AB883C",
"1+	c #756D33",
"2+	c #A49912",
"3+	c #CCBC19",
"4+	c #A39D0C",
"5+	c #928F0B",
"6+	c #837B13",
"7+	c #6E6316",
"8+	c #876E1D",
"9+	c #9C781F",
"0+	c #AA7D22",
"a+	c #B98427",
"b+	c #B18024",
"c+	c #B38225",
"d+	c #AB7E23",
"e+	c #93731D",
"f+	c #8A701D",
"g+	c #74661B",
"h+	c #938817",
"i+	c #CBBE19",
"j+	c #9B970B",
"k+	c #918C15",
"l+	c #958C1F",
"m+	c #706520",
"n+	c #7B6717",
"o+	c #846C1A",
"p+	c #AE7F23",
"q+	c #B28125",
"r+	c #AF7F24",
"s+	c #AA7E23",
"t+	c #AD7F24",
"u+	c #BA8527",
"v+	c #A87C22",
"w+	c #8F711D",
"x+	c #7D6918",
"y+	c #8A7324",
"z+	c #B9AE20",
"A+	c #BBAF1A",
"B+	c #BBAD15",
"C+	c #ADA80E",
"D+	c #7A702B",
"E+	c #6C6118",
"F+	c #6B6017",
"G+	c #7E691A",
"H+	c #B18125",
"I+	c #B88426",
"J+	c #B58225",
"K+	c #8E701C",
"L+	c #7A691D",
"M+	c #8E8227",
"N+	c #766D24",
"O+	c #CBC112",
"P+	c #B7AD1E",
"Q+	c #928620",
"R+	c #7D6A1E",
"S+	c #8D711B",
"T+	c #8C701D",
"U+	c #A67B22",
"V+	c #BE8628",
"W+	c #AD7F23",
"X+	c #BC8627",
"Y+	c #A67B21",
"Z+	c #A77C21",
"`+	c #92721E",
" @	c #856E22",
".@	c #A1951A",
"+@	c #A19412",
"@@	c #B3A719",
"#@	c #948A2D",
"$@	c #8A7221",
"%@	c #89701A",
"&@	c #796719",
"*@	c #93731E",
"=@	c #9F7821",
"-@	c #AC7E23",
";@	c #AC7F23",
">@	c #9B7620",
",@	c #B28024",
"'@	c #A47A21",
")@	c #826B15",
"!@	c #947D38",
"~@	c #B4A614",
"{@	c #99980B",
"]@	c #958E1C",
"^@	c #75652A",
"/@	c #776614",
"(@	c #8C711B",
"_@	c #98761E",
":@	c #856D1C",
"<@	c #90711D",
"[@	c #9C771F",
"}@	c #9F7920",
"|@	c #7B6819",
"1@	c #7E6A1A",
"2@	c #6C6218",
"3@	c #9B9126",
"4@	c #C9BC18",
"5@	c #97970B",
"6@	c #9C950B",
"7@	c #A28D37",
"8@	c #756623",
"9@	c #836C18",
"0@	c #876E1C",
"a@	c #846C1B",
"b@	c #93741E",
"c@	c #AA7D23",
"d@	c #97751E",
"e@	c #AF7F23",
"f@	c #AF7E23",
"g@	c #A27B20",
"h@	c #98761F",
"i@	c #816B1B",
"j@	c #836C1A",
"k@	c #866D19",
"l@	c #887223",
"m@	c #84781E",
"n@	c #98970B",
"o@	c #B3A80E",
"p@	c #B0A32A",
"q@	c #716422",
"r@	c #7E6917",
"s@	c #856D1B",
"t@	c #90721D",
"u@	c #92731E",
"v@	c #826B1B",
"w@	c #886E1C",
"x@	c #896E1B",
"y@	c #876F1A",
"z@	c #866F1A",
"A@	c #967F37",
"B@	c #BBB116",
"C@	c #C7B518",
"D@	c #A0980C",
"E@	c #A89E1F",
"F@	c #70641E",
"G@	c #816B19",
"H@	c #91731D",
"I@	c #886E1B",
"J@	c #8E711D",
"K@	c #9E781F",
"L@	c #806B1A",
"M@	c #716318",
"N@	c #6E5F12",
"O@	c #746519",
"P@	c #9A9117",
"Q@	c #A69812",
"R@	c #98950B",
"S@	c #ABA011",
"T@	c #867B21",
"U@	c #6B5F16",
"V@	c #7A6718",
"W@	c #876E1A",
"X@	c #826C1A",
"Y@	c #98751F",
"Z@	c #736318",
"`@	c #866D1A",
" #	c #7C6819",
".#	c #796616",
"+#	c #766F38",
"@#	c #98940D",
"##	c #9F9511",
"$#	c #B3AA0F",
"%#	c #B1A51E",
"&#	c #746B2C",
"*#	c #6B5E15",
"=#	c #6B5F15",
"-#	c #716217",
";#	c #726317",
">#	c #826C1B",
",#	c #8C701C",
"'#	c #856D1A",
")#	c #856E1B",
"!#	c #756518",
"~#	c #806A1A",
"{#	c #886C11",
"]#	c #A79B13",
"^#	c #AAA50D",
"/#	c #BEB319",
"(#	c #625F54",
"_#	c #7D7746",
":#	c #6B6019",
"<#	c #74651C",
"[#	c #856E1A",
"}#	c #7B6919",
"|#	c #7C6919",
"1#	c #776618",
"2#	c #6E6117",
"3#	c #706217",
"4#	c #B4AD32",
"5#	c #C8BE13",
"6#	c #BEAD16",
"7#	c #B2AD0E",
"8#	c #8C8A4F",
"9#	c #5E5C51",
"0#	c #806914",
"a#	c #6F6116",
"b#	c #736418",
"c#	c #766519",
"d#	c #7E6919",
"e#	c #796718",
"f#	c #866E1A",
"g#	c #726318",
"h#	c #6A5E17",
"i#	c #605D52",
"j#	c #ABA430",
"k#	c #B3AB0E",
"l#	c #AEA50E",
"m#	c #BDB210",
"n#	c #626054",
"o#	c #6A5E13",
"p#	c #6D611A",
"q#	c #6E631D",
"r#	c #6A5E14",
"s#	c #6F6217",
"t#	c #6D6015",
"u#	c #6A5D11",
"v#	c #756415",
"w#	c #836D1A",
"x#	c #706115",
"y#	c #876E1B",
"z#	c #6C5F13",
"A#	c #776413",
"B#	c #6D6119",
"C#	c #6A5E12",
"D#	c #625F55",
"E#	c #B5AC2A",
"F#	c #8A8752",
"G#	c #666355",
"H#	c #7B743F",
"I#	c #726826",
"J#	c #695D11",
"K#	c #7A743F",
"L#	c #746B30",
"M#	c #6D5F14",
"N#	c #6E6014",
"O#	c #716828",
"P#	c #6E621A",
"Q#	c #6F6114",
"R#	c #6B5D12",
"S#	c #756C30",
"T#	c #79733E",
"U#	c #6E631E",
"V#	c #6C6017",
"W#	c #817C4F",
"X#	c #756C2F",
"Y#	c #6D6C5B",
"Z#	c #A49712",
"`#	c #C9C312",
" $	c #A69F3A",
".$	c #615E53",
"+$	c #5E5B50",
"@$	c #6B6956",
"#$	c #736A2B",
"$$	c #7C7542",
"%$	c #676558",
"&$	c #5F5C51",
"*$	c #787038",
"=$	c #636155",
"-$	c #706725",
";$	c #6C6956",
">$	c #7A733D",
",$	c #7B743E",
"'$	c #646256",
")$	c #696658",
"!$	c #7D7A50",
"~$	c #B6AD29",
"{$	c #ACA30E",
"]$	c #AA9D13",
"^$	c #C7C112",
"/$	c #979348",
"($	c #9F9A41",
"_$	c #817D4D",
":$	c #636055",
"<$	c #626055",
"[$	c #5F5D52",
"}$	c #605E53",
"|$	c #ABA537",
"1$	c #C7BE12",
"2$	c #CAB919",
"3$	c #BCB510",
"4$	c #C3B911",
"5$	c #C1B710",
"6$	c #7E7D58",
"7$	c #615F54",
"8$	c #777559",
"9$	c #817E53",
"0$	c #C4B417",
"a$	c #A39E0D",
"b$	c #B4A810",
"c$	c #B0A510",
"d$	c #BAAB12",
"e$	c #C7BA13",
"f$	c #A9A132",
"g$	c #969148",
"h$	c #9F9841",
"i$	c #716E5A",
"j$	c #989046",
"k$	c #827F52",
"l$	c #797758",
"m$	c #989140",
"n$	c #87834C",
"o$	c #918A40",
"p$	c #757259",
"q$	c #807E4E",
"r$	c #898643",
"s$	c #949045",
"t$	c #948F49",
"u$	c #9A9444",
"v$	c #A09941",
"w$	c #C6B914",
"x$	c #A39711",
"y$	c #A79D0D",
"z$	c #C2B510",
"A$	c #A19A0D",
"B$	c #B1A514",
"C$	c #ADA317",
"D$	c #C7BA1B",
"E$	c #CCC018",
"F$	c #CCC118",
"G$	c #C7BA1A",
"H$	c #ADA018",
"I$	c #ADA017",
"J$	c #ABA017",
"K$	c #B7A81A",
"L$	c #CCC019",
"M$	c #CABA1E",
"N$	c #CEBE1E",
"O$	c #B9A224",
"P$	c #A59817",
"Q$	c #C0AB20",
"R$	c #CBBE1B",
"S$	c #CBBA1C",
"T$	c #C8B91E",
"U$	c #AA9D19",
"V$	c #A29715",
"W$	c #AA9E17",
"X$	c #AEA217",
"Y$	c #C8BA1C",
"Z$	c #CCC119",
"`$	c #CDC318",
" %	c #C3B020",
".%	c #A89A19",
"+%	c #ACA016",
"@%	c #B3A517",
"#%	c #CCC023",
"  . + + + . . . + + + + + + + + +   . . . . @ # . + + . . + + $ ",
"% & * * * * & & * * * * * * * * * * & & = * - ; > , ' ) = * * ! ",
"~ { ] * & ^ / ( * _ & & : < & & & & [ } / | 1 ; / 2 3 4 ' 5 * 6 ",
"7 8 & * ] 8 9 0 2 a b & c d & & e f g h i j k l m n _ o p q * r ",
"3 s _ * * _ t u v w x y z A B C D E F z G H z I J & * * & * * K ",
"L M N & * * * O P Q R S S T U V V W X S S Y S Z Q ` * & _ & %  .",
"..+.@._ * * #.$.%.S F U &.&.W *.=.-.;.>.S S S T ,.'.).5 o !.t ~.",
"{.].^.* * /.(._.:.<.S [.}.|.>.1.2.3.4.5.X >.6.7.8.9.0.a.9 @.m b.",
"4 _ & * c.d.e.f.g.h.S i.j.k.l.m.|.l.n.o.>.p.7.h.q.r.s.t.u.v.w.x.",
"y.& z.A.B.C.D.D.q.q.E.2.6.F.G.H.I.J.K.L.M.&.N.O.P.Q.q.R.S.T.U.V.",
"W.* X.Y.Z.`. +O..+ +T W 8.W ++@+#+$+%+-.S S W &+*+Y  +=+-+;+>+,+",
"'+)+!+~+{+]+^+/+(+P.P._+T S T M.M.8.:+8./+S  +q.<+[+}+|+1+2+% 3+",
"4+5+6+7+8+9+M.0+a+*+O.U W S S [.8.S W Y b+S c+:.d+:+e+f+g+h+* i+",
"j+k+l+m+n+o+E.p+q+Y r+Y d+d+S Q.s+S U c+h.t+b+P.u+v+w+x+y+z+A+B+",
"C+D+E+F+G+i.W [. +d+H+a+(+f.b+I+J+t+f._+0+<. +U t+7.8.K+L+M+N+V.",
"O+P+Q+R+S+T+H.U+V+W+Q.p+S  +h.u+ +r.X+d+Y+r.d+_+r.[.Z+`+n+ @.@+@",
">+@@#@$@%@H.&@*@=@-.S S V [+7.-@d+q+&+T ;@h.8.>@,@'@o.H.)@!@!.~@",
"{@]@^@/@(@l._@i.:@N.S T 6.i.8.s+h.W+h.W+S /+8.<@[@}@|@1@|@2@3@4@",
"5@6@7@8@9@4.9+0@a@S S }@S N.b@_+c@d@e@f@S S g@h@H.i@j@k@l@1+m@3+",
"n@o@p@q@r@_@X s@t@[.t@a@i.d@0@S u@i.Y+8.[.T &.v@w@x@4.y@z@A@B@C@",
"5@D@E@F@G@;.5.n.m.H@I@&.J@&.s@v@w@}@N.S [@6.:+v@t@K@L@M@N@O@P@Q@",
"R@S@T@U@V@4.L@4.W@X@[+i.i@M.^+|@Y@I@;.:+$+#+(@Z@&@`@ #.#+#1+@###",
"$#%#&#*#=#-#|@|.j@;#I@4.G.>#i@K.,#'#n.|.#+)#o+!#l.~#&@{#1+1+7 ]#",
"^#/#(#_#:#<#W@G.X@j@M@K.j@|@[#|.}#|#m.X@|#L@1#2#|@3#E+1+1+4#5#6#",
"7#; 8#9#1+1+0#a#b#X@c#|.d#e#(@#+'#|@f#(@J.G.4.g#h#=#U@1+i#j#* K ",
"k#l#m#n#n#o#p#q#=#r#s#&@t#u#v#w#)#x#x+y#2#z#A#a#F+B#C#1+D#E#] b.",
"u 8 = F#n#n#G#H#p#I#C#J#q#K#L#M#N#O#P#Q#R#S#T#U#V#W#X#(#Y#^.n Z#",
"`#* *  $.$+$n#n#@$(##$$$%$&$.$*$1+=$1+-$;$.$&$>$,$'$)$!$~$q {$]$",
"^$_ ] & /$($_$:$+$<$+$&$&$+$+$[$}$&$+$.$&$+$+$.$&$+$|$& * * 1$2$",
"3$4$5$s & ] ] 6$+$.$7$7$+$+$+$+$+$+$+$+$+$+$+$+$8$9$4 N & & s 0$",
"a$b$c$d$e$N N f$g$h$i$j$k$l$m$n$o$p$q$r$s$t$u$v$w$d$x$y$z$4 A$B$",
"C$D$E$F$G$H$I$J$K$L$M$N$O$P$Q$R$S$T$U$V$W$I$X$Y$Z$`$ %.%J$+%@%#%"};
