/* XPM */
static char * bush4_xpm[] = {
"32 32 569 2",
"  	c #C8BC14",
". 	c #CEBE1F",
"+ 	c #CDBC1F",
"@ 	c #CEBC1F",
"# 	c #BFAF1C",
"$ 	c #C3B41C",
"% 	c #C7BC12",
"& 	c #C3B80E",
"* 	c #C8BD12",
"= 	c #C8BC12",
"- 	c #C9BC12",
"; 	c #A69D0D",
"> 	c #B0A60E",
", 	c #CBC013",
"' 	c #BCB010",
") 	c #B4A80F",
"! 	c #C7BA12",
"~ 	c #C9BC15",
"{ 	c #C0B410",
"] 	c #C8BE12",
"^ 	c #BEB410",
"/ 	c #ADA30E",
"( 	c #B4AA0E",
"_ 	c #C9BE12",
": 	c #C6B61D",
"< 	c #C6B917",
"[ 	c #B2A221",
"} 	c #B0A020",
"| 	c #AFA115",
"1 	c #B2A415",
"2 	c #AEA30E",
"3 	c #B9AF0F",
"4 	c #C0B510",
"5 	c #C5BA11",
"6 	c #C5B811",
"7 	c #BFB410",
"8 	c #A59D0D",
"9 	c #99940B",
"0 	c #B4AA0F",
"a 	c #C2B01C",
"b 	c #B98D30",
"c 	c #B3902F",
"d 	c #AC801B",
"e 	c #BB8827",
"f 	c #B38329",
"g 	c #AF8330",
"h 	c #B6962E",
"i 	c #BA8D2E",
"j 	c #BD9130",
"k 	c #BDA12E",
"l 	c #ABA20D",
"m 	c #B8AD0F",
"n 	c #C1B511",
"o 	c #B3A80F",
"p 	c #C5B911",
"q 	c #C4B911",
"r 	c #C0B511",
"s 	c #AAA20D",
"t 	c #B2942B",
"u 	c #B98C27",
"v 	c #B48826",
"w 	c #AD8020",
"x 	c #AF7F22",
"y 	c #AC7D21",
"z 	c #B78422",
"A 	c #AA7F1E",
"B 	c #B08025",
"C 	c #AB7E22",
"D 	c #AA7E22",
"E 	c #A77C20",
"F 	c #B58124",
"G 	c #B18026",
"H 	c #BC9D34",
"I 	c #AFA50E",
"J 	c #C3B711",
"K 	c #BFAF22",
"L 	c #A78129",
"M 	c #B28023",
"N 	c #B08023",
"O 	c #A47B21",
"P 	c #A67C21",
"Q 	c #A97D22",
"R 	c #A27A20",
"S 	c #A37B21",
"T 	c #A17A20",
"U 	c #A87D22",
"V 	c #AC7E22",
"W 	c #BAA037",
"X 	c #A49B0C",
"Y 	c #BAAF10",
"Z 	c #BEAE22",
"` 	c #AC842C",
" .	c #AA7C20",
"..	c #9B771F",
"+.	c #95751D",
"@.	c #93741D",
"#.	c #A37A21",
"$.	c #8F721C",
"%.	c #96751E",
"&.	c #AC7D20",
"*.	c #AD8530",
"=.	c #C4B61A",
"-.	c #C6BC12",
";.	c #C6BA11",
">.	c #C6BA12",
",.	c #B7AA1F",
"'.	c #AB832B",
").	c #B98324",
"!.	c #BB8527",
"~.	c #AE8024",
"{.	c #A57C21",
"].	c #90731C",
"^.	c #886F1B",
"/.	c #9A771F",
"(.	c #8E711C",
"_.	c #92731D",
":.	c #8A701B",
"<.	c #8D711C",
"[.	c #9D7820",
"}.	c #A77C22",
"|.	c #A57B21",
"1.	c #A87C21",
"2.	c #A28626",
"3.	c #BCAF11",
"4.	c #C4B915",
"5.	c #947A23",
"6.	c #A3791E",
"7.	c #B68326",
"8.	c #BD8627",
"9.	c #B78326",
"0.	c #99761F",
"a.	c #97761E",
"b.	c #8E721C",
"c.	c #866E1B",
"d.	c #896F1B",
"e.	c #89701B",
"f.	c #896F1C",
"g.	c #8C711C",
"h.	c #B08024",
"i.	c #B38125",
"j.	c #A27B1E",
"k.	c #B6AA12",
"l.	c #98940B",
"m.	c #9F980C",
"n.	c #B6AB0F",
"o.	c #C4B41E",
"p.	c #A38C3C",
"q.	c #9F8A2F",
"r.	c #A17A22",
"s.	c #B28124",
"t.	c #9D781F",
"u.	c #99761E",
"v.	c #7D6919",
"w.	c #7F6A1A",
"x.	c #7C691A",
"y.	c #7A6819",
"z.	c #846D1A",
"A.	c #866D1B",
"B.	c #9E7820",
"C.	c #A27A21",
"D.	c #BA8427",
"E.	c #B98426",
"F.	c #B18124",
"G.	c #9B852F",
"H.	c #978634",
"I.	c #9B9413",
"J.	c #A29B0C",
"K.	c #B1A414",
"L.	c #A28B33",
"M.	c #9C771C",
"N.	c #A57B20",
"O.	c #AF8024",
"P.	c #B08125",
"Q.	c #95741E",
"R.	c #8B6F1C",
"S.	c #816B1A",
"T.	c #896E1C",
"U.	c #8A6F1C",
"V.	c #B58326",
"W.	c #BC8527",
"X.	c #9D771D",
"Y.	c #9B8929",
"Z.	c #BBB011",
"`.	c #BCB210",
" +	c #A79E0D",
".+	c #9B940B",
"++	c #ACA012",
"@+	c #A38633",
"#+	c #A47B1F",
"$+	c #96741F",
"%+	c #A67C22",
"&+	c #AE7F24",
"*+	c #B48225",
"=+	c #A07920",
"-+	c #A77D22",
";+	c #A07A20",
">+	c #AE7E20",
",+	c #AB883C",
"'+	c #756D33",
")+	c #A49912",
"!+	c #C9C012",
"~+	c #928F0B",
"{+	c #837B13",
"]+	c #6E6316",
"^+	c #876E1D",
"/+	c #9C781F",
"(+	c #AA7D22",
"_+	c #B98427",
":+	c #B18024",
"<+	c #B38225",
"[+	c #AB7E23",
"}+	c #93731D",
"|+	c #8A701D",
"1+	c #74661B",
"2+	c #938817",
"3+	c #918C15",
"4+	c #958C1F",
"5+	c #706520",
"6+	c #7B6717",
"7+	c #846C1A",
"8+	c #AE7F23",
"9+	c #B28125",
"0+	c #AF7F24",
"a+	c #AA7E23",
"b+	c #AD7F24",
"c+	c #BA8527",
"d+	c #A87C22",
"e+	c #8F711D",
"f+	c #7D6918",
"g+	c #8A7324",
"h+	c #B9AE20",
"i+	c #BBAF1A",
"j+	c #7A702B",
"k+	c #6C6118",
"l+	c #6B6017",
"m+	c #7E691A",
"n+	c #A37B22",
"o+	c #AA8638",
"p+	c #E69256",
"q+	c #B58C47",
"r+	c #B18126",
"s+	c #B88426",
"t+	c #B58225",
"u+	c #8E701C",
"v+	c #7A691D",
"w+	c #8E8227",
"x+	c #B7AD1E",
"y+	c #928620",
"z+	c #7D6A1E",
"A+	c #8D711B",
"B+	c #8C701D",
"C+	c #8B7734",
"D+	c #EBA35E",
"E+	c #FFB036",
"F+	c #F1974B",
"G+	c #B38735",
"H+	c #A67B21",
"I+	c #A77C21",
"J+	c #92721E",
"K+	c #856E22",
"L+	c #B3A719",
"M+	c #948A2D",
"N+	c #8A7221",
"O+	c #89701A",
"P+	c #816E28",
"Q+	c #D07840",
"R+	c #F7AB35",
"S+	c #D87937",
"T+	c #A9823A",
"U+	c #AF8128",
"V+	c #B6854E",
"W+	c #AC5656",
"X+	c #B48132",
"Y+	c #B28227",
"Z+	c #AC7F23",
"`+	c #9B7620",
" @	c #B28024",
".@	c #A47A21",
"+@	c #826B15",
"@@	c #947D38",
"#@	c #B7AD0F",
"$@	c #75652A",
"%@	c #776614",
"&@	c #8C711B",
"*@	c #967B36",
"=@	c #846058",
"-@	c #BB5733",
";@	c #8F5F51",
">@	c #9E7D36",
",@	c #B58343",
"'@	c #C45C64",
")@	c #D03F49",
"!@	c #BF3E4A",
"~@	c #B58140",
"{@	c #A98231",
"]@	c #90711D",
"^@	c #9C771F",
"/@	c #9F7920",
"(@	c #7B6819",
"_@	c #7E6A1A",
":@	c #6C6218",
"<@	c #9C950B",
"[@	c #A28D37",
"}@	c #756623",
"|@	c #836C18",
"1@	c #9E8340",
"2@	c #857340",
"3@	c #82706F",
"4@	c #9F7B2E",
"5@	c #A28544",
"6@	c #93741E",
"7@	c #A36C60",
"8@	c #BF4148",
"9@	c #F54F57",
"0@	c #C53038",
"a@	c #9E5B5F",
"b@	c #AA8741",
"c@	c #A27B20",
"d@	c #98761F",
"e@	c #816B1B",
"f@	c #836C1A",
"g@	c #866D19",
"h@	c #887223",
"i@	c #B3A80E",
"j@	c #B0A32A",
"k@	c #716422",
"l@	c #7E6917",
"m@	c #98761E",
"n@	c #856D1B",
"o@	c #91721D",
"p@	c #A67B22",
"q@	c #97751E",
"r@	c #B28229",
"s@	c #9D7930",
"t@	c #914442",
"u@	c #BB393B",
"v@	c #9B4042",
"w@	c #95733D",
"x@	c #B08532",
"y@	c #826B1B",
"z@	c #886E1C",
"A@	c #896E1B",
"B@	c #876F1A",
"C@	c #866F1A",
"D@	c #967F37",
"E@	c #A0980C",
"F@	c #A89E1F",
"G@	c #70641E",
"H@	c #816B19",
"I@	c #8B711B",
"J@	c #957622",
"K@	c #B3844E",
"L@	c #A95556",
"M@	c #B38132",
"N@	c #AD7F26",
"O@	c #B08330",
"P@	c #816C26",
"Q@	c #7F672F",
"R@	c #734C42",
"S@	c #86663B",
"T@	c #9E7A2B",
"U@	c #AF822E",
"V@	c #90721D",
"W@	c #9E781F",
"X@	c #806B1A",
"Y@	c #716318",
"Z@	c #6E5F12",
"`@	c #746519",
" #	c #C4B811",
".#	c #ABA011",
"+#	c #867B21",
"@#	c #6B5F16",
"##	c #7A6718",
"$#	c #90731D",
"%#	c #B28242",
"&#	c #B28040",
"*#	c #A48030",
"=#	c #987826",
"-#	c #A9802A",
";#	c #967627",
">#	c #87712E",
",#	c #8B7432",
"'#	c #A7833C",
")#	c #9A7926",
"!#	c #967D34",
"~#	c #E29055",
"{#	c #947D40",
"]#	c #7C6819",
"^#	c #796616",
"/#	c #766F38",
"(#	c #B2A61E",
"_#	c #746B2C",
":#	c #6B5E15",
"<#	c #6B5F15",
"[#	c #716217",
"}#	c #9E695F",
"|#	c #907B3B",
"1#	c #8C701C",
"2#	c #856D1A",
"3#	c #907B35",
"4#	c #EBA35D",
"5#	c #89732C",
"6#	c #796719",
"7#	c #886C11",
"8#	c #BEB319",
"9#	c #625F54",
"0#	c #7D7746",
"a#	c #6B6019",
"b#	c #74651C",
"c#	c #836C1B",
"d#	c #826D2F",
"e#	c #904442",
"f#	c #806A33",
"g#	c #7B6919",
"h#	c #7C6919",
"i#	c #826C1A",
"j#	c #877129",
"k#	c #806E32",
"l#	c #B4AD32",
"m#	c #C6B911",
"n#	c #B1A70E",
"o#	c #8C8A4F",
"p#	c #5E5C51",
"q#	c #7F6916",
"r#	c #806B1B",
"s#	c #736419",
"t#	c #7C662B",
"u#	c #6F4A40",
"v#	c #7E662D",
"w#	c #7D6920",
"x#	c #8D721B",
"y#	c #866E1A",
"z#	c #807132",
"A#	c #836058",
"B#	c #8C5E51",
"C#	c #70662D",
"D#	c #605D52",
"E#	c #ABA430",
"F#	c #AFA60E",
"G#	c #BDB210",
"H#	c #626054",
"I#	c #6A5E13",
"J#	c #6E621A",
"K#	c #7B691B",
"L#	c #6F6633",
"M#	c #70641D",
"N#	c #796923",
"O#	c #786719",
"P#	c #836C1D",
"Q#	c #756415",
"R#	c #836D1A",
"S#	c #856E1B",
"T#	c #706115",
"U#	c #876E1B",
"V#	c #6E6117",
"W#	c #7A7037",
"X#	c #7A6D3A",
"Y#	c #816F6E",
"Z#	c #6E6425",
"`#	c #7A723E",
" $	c #6A5E12",
".$	c #625F55",
"+$	c #B5AC2A",
"@$	c #8A8752",
"#$	c #666355",
"$$	c #7C7033",
"%$	c #756519",
"&$	c #726826",
"*$	c #695D11",
"=$	c #79681E",
"-$	c #7C743E",
";$	c #746B30",
">$	c #6D5F14",
",$	c #6E6014",
"'$	c #716828",
")$	c #6F6114",
"!$	c #6B5D12",
"~$	c #756C30",
"{$	c #79733E",
"]$	c #6E631E",
"^$	c #6C6017",
"/$	c #817C4F",
"($	c #756C2F",
"_$	c #6D6C5B",
":$	c #A69F3A",
"<$	c #615E53",
"[$	c #5E5B50",
"}$	c #6B6956",
"|$	c #736A2B",
"1$	c #7C7542",
"2$	c #676558",
"3$	c #5F5C51",
"4$	c #787038",
"5$	c #636155",
"6$	c #706725",
"7$	c #6C6956",
"8$	c #7A733D",
"9$	c #7B743E",
"0$	c #646256",
"a$	c #696658",
"b$	c #7D7A50",
"c$	c #B6AD29",
"d$	c #979348",
"e$	c #9F9A41",
"f$	c #817D4D",
"g$	c #636055",
"h$	c #626055",
"i$	c #5F5D52",
"j$	c #605E53",
"k$	c #ABA537",
"l$	c #C3B911",
"m$	c #C1B710",
"n$	c #7E7D58",
"o$	c #615F54",
"p$	c #777559",
"q$	c #817E53",
"r$	c #C8BC15",
"s$	c #B6AA10",
"t$	c #B0A510",
"u$	c #BAAB12",
"v$	c #C7BA13",
"w$	c #A9A132",
"x$	c #969148",
"y$	c #9F9841",
"z$	c #716E5A",
"A$	c #989046",
"B$	c #827F52",
"C$	c #797758",
"D$	c #989140",
"E$	c #87834C",
"F$	c #918A40",
"G$	c #757259",
"H$	c #807E4E",
"I$	c #898643",
"J$	c #949045",
"K$	c #948F49",
"L$	c #9A9444",
"M$	c #A09941",
"N$	c #C6B914",
"O$	c #A39711",
"P$	c #A79D0D",
"Q$	c #C2B510",
"R$	c #C8BD13",
"S$	c #C7BA1A",
"T$	c #CCC018",
"U$	c #CCC118",
"V$	c #ADA018",
"W$	c #ADA017",
"X$	c #ABA017",
"Y$	c #B7A81A",
"Z$	c #CCC019",
"`$	c #CABA1E",
" %	c #CEBE1E",
".%	c #B9A224",
"+%	c #A59817",
"@%	c #C0AB20",
"#%	c #CBBE1B",
"$%	c #CBBA1C",
"%%	c #C8B91E",
"&%	c #AA9D19",
"*%	c #A29715",
"=%	c #AA9E17",
"-%	c #AEA217",
";%	c #C8BA1C",
">%	c #CCC119",
",%	c #CDC318",
"'%	c #C3B020",
")%	c #A89A19",
"!%	c #ACA016",
"  . + + + . . . + + + + + + + + + @ . . . . # $ . + + . . + % & ",
"* = % % % % = = % % % % % % % % % % = = - % ; > , ' ) ! - % % & ",
"~ { ] % = ^ / ( % _ = = : < = = = = [ } / | 1 > / 2 3 4 ) 5 % & ",
"6 7 = % ] 7 8 9 2 0 a = b c = = d e f g h i j k l m _ n o p % & ",
"6 q _ % % _ r s t u v w x y z A B C D x E F x G H = % % = % % & ",
"6 I J = % % % K L M N O O P Q R R S T O O U O V M W % = _ = % & ",
"6 X Y _ % % Z `  .O D Q ....S +.@.#.$.%.O O O P &.*.=.5 n -.% & ",
"6 ;.>.% % ,.'.).!.~.O {.].^.%./.(._.:.<.T %.[.}.|.1.2.3.8 Y l & ",
"p _ = % 4.5.6.7.8.9.O 0.a.b.c.d.^.c.e.f.%.g.}.9.h.i.j.k.l.m.n.& ",
"p = o.p.q.r.s.s.h.h.t.(.[.u.v.w.x.y.z.A.B...C.D.E.F.h.G.H.I.J.& ",
"p % K.L.M.N.O.D.P.O.P S |.S Q.R.S.T.U.#.O O S V.W.U O.X.Y.Z.`.& ",
"p  +.+++@+#+$+%+&+E.E.*+P O P B.B.|.=+|.%+O O.h.-+;+>+,+'+)+!+& ",
"p ~+{+]+^+/+B.(+_+W.D.Q S O O {.|.O S U :+O <+!.[+=+}+|+1+2+% & ",
"p 3+4+5+6+7+t.8+9+U 0+U [+[+O F.a+O Q <+9.b+:+E.c+d+e+f+g+h+i+& ",
"p j+k+l+m+0.n+o+p+q+r+_+&+7.:+s+t+b+7.*+(+~.O.Q b+}.|.u+v+w+% & ",
";.x+y+z+A+B+C+D+E+F+G+8+O O.9.c+F.i.7.[+H+i.[+*+i.{.I+J+6+K+% & ",
";.L+M+N+O+w.P+Q+R+S+T+O R ;+d+U+V+W+X+Y+Z+9.|.`+ @.@f.w.+@@@% & ",
";.#@$@%@&@c.*@=@-@;@>@P [.0.}.,@'@)@!@~@{@%+|.]@^@/@(@_@(@:@% & ",
">.<@[@}@|@:.1@2@3@4@5@/@O C.6@7@8@9@0@a@b@O c@d@w.e@f@g@h@'+% & ",
">.i@j@k@l@m@T n@o@Z+o@p@0.q@r@s@t@u@v@w@x@P ..y@z@A@:.B@C@D@% & ",
">.E@F@G@H@$.<.I@J@K@L@M@N@..O@P@Q@R@S@T@U@B.=+y@V@W@X@Y@Z@`@%  #",
">..#+#@###:.X@$#%#'@)@!@&#*#=#-#;#>#,#'#)#e@!#~#{#A.]#^#/#'+%  #",
";.(#_#:#<#[#(@^.}#8@9@0@a@|#e@z.1#2#e.$.f@3#4#E+F+5#6#7#'+'+%  #",
";.8#9#0#a#b#2#c#d#e#u@v@f#w.C@^.g#h#d.i#h#j#Q+R+S+k#k+'+'+l#%  #",
"m#n#o#p#'+'+q#r#s#t#u#v#w#m+x#S.2#(@y#&@y.z#A#-@B#C#@#'+D#E#% & ",
"p F#G#H#H#I#J#K#S.L#M#N#O#P#Q#R#S#T#f+U#V#W#X#Y#Z#`# $'+.$+$% & ",
"p 7 - @$H#H##$$$%$&$ $*$=$-$;$>$,$'$J#)$!$~${$]$^$/$($9#_$>.% & ",
"p % % :$<$[$H#H#}$9#|$1$2$3$<$4$'+5$'+6$7$<$3$8$9$0$a$b$c$p % & ",
"p _ ] = d$e$f$g$[$h$[$3$3$[$[$i$j$3$[$<$3$[$[$<$3$[$k$= % % % & ",
"  l$m$q = ] ] n$[$<$o$o$[$[$[$[$[$[$[$[$[$[$[$[$p$q$4 J = = % & ",
"r$s$t$u$v$J J w$x$y$z$A$B$C$D$E$F$G$H$I$J$K$L$M$N$u$O$P$Q$4 % R$",
"~ S$T$U$S$V$W$X$Y$Z$`$ %.%+%@%#%$%%%&%*%=%W$-%;%>%,%'%)%X$!%% R$"};
