/* XPM */
static char * bush3_xpm[] = {
"32 32 550 2",
"  	c #CEBC1F",
". 	c #CEBE1F",
"+ 	c #CDBC1F",
"@ 	c #BFAF1C",
"# 	c #C3B41C",
"$ 	c #D1C127",
"% 	c #C9C012",
"& 	c #C8BC12",
"* 	c #C7BC12",
"= 	c #C9BC12",
"- 	c #A69D0D",
"; 	c #B0A60E",
"> 	c #CBC013",
", 	c #BCB010",
"' 	c #B4A80F",
") 	c #C7BA12",
"! 	c #CBBA18",
"~ 	c #B6B00F",
"{ 	c #C0B410",
"] 	c #C8BE12",
"^ 	c #BEB410",
"/ 	c #ADA30E",
"( 	c #B4AA0E",
"_ 	c #C9BE12",
": 	c #C6B61D",
"< 	c #C6B917",
"[ 	c #B2A221",
"} 	c #B0A020",
"| 	c #AFA115",
"1 	c #B2A415",
"2 	c #AEA30E",
"3 	c #B9AF0F",
"4 	c #C0B510",
"5 	c #C5BA11",
"6 	c #BAA815",
"7 	c #B7AD0F",
"8 	c #BFB410",
"9 	c #A59D0D",
"0 	c #99940B",
"a 	c #B4AA0F",
"b 	c #C2B01C",
"c 	c #B98D30",
"d 	c #B3902F",
"e 	c #AC801B",
"f 	c #BB8827",
"g 	c #B38329",
"h 	c #AF8330",
"i 	c #B6962E",
"j 	c #BA8D2E",
"k 	c #BD9130",
"l 	c #BDA12E",
"m 	c #ABA20D",
"n 	c #B8AD0F",
"o 	c #C1B511",
"p 	c #B3A80F",
"q 	c #C5B911",
"r 	c #BAAB15",
"s 	c #C4B911",
"t 	c #C0B511",
"u 	c #AAA20D",
"v 	c #B2942B",
"w 	c #B98C27",
"x 	c #B48826",
"y 	c #AD8020",
"z 	c #AF7F22",
"A 	c #AC7D21",
"B 	c #B78422",
"C 	c #AA7F1E",
"D 	c #B08025",
"E 	c #AB7E22",
"F 	c #AA7E22",
"G 	c #A77C20",
"H 	c #B58124",
"I 	c #B18026",
"J 	c #BC9D34",
"K 	c #CCBE19",
"L 	c #97950B",
"M 	c #AFA50E",
"N 	c #C3B711",
"O 	c #BFAF22",
"P 	c #A78129",
"Q 	c #B28023",
"R 	c #B08023",
"S 	c #A47B21",
"T 	c #A67C21",
"U 	c #A97D22",
"V 	c #A27A20",
"W 	c #A37B21",
"X 	c #A17A20",
"Y 	c #A87D22",
"Z 	c #AC7E22",
"` 	c #BAA037",
" .	c #CBBA19",
"..	c #9F9D0C",
"+.	c #A49B0C",
"@.	c #BAAF10",
"#.	c #BEAE22",
"$.	c #AC842C",
"%.	c #AA7C20",
"&.	c #9B771F",
"*.	c #95751D",
"=.	c #93741D",
"-.	c #A37A21",
";.	c #8F721C",
">.	c #96751E",
",.	c #AC7D20",
"'.	c #AD8530",
").	c #C4B61A",
"!.	c #C6BC12",
"~.	c #C8B918",
"{.	c #BBB410",
"].	c #C6BA11",
"^.	c #C6BA12",
"/.	c #B7AA1F",
"(.	c #AB832B",
"_.	c #B98324",
":.	c #BB8527",
"<.	c #AE8024",
"[.	c #A57C21",
"}.	c #90731C",
"|.	c #886F1B",
"1.	c #9A771F",
"2.	c #8E711C",
"3.	c #92731D",
"4.	c #8A701B",
"5.	c #8D711C",
"6.	c #9D7820",
"7.	c #A77C22",
"8.	c #A57B21",
"9.	c #A87C21",
"0.	c #A28626",
"a.	c #BCAF11",
"b.	c #BEB016",
"c.	c #C4B915",
"d.	c #947A23",
"e.	c #A3791E",
"f.	c #B68326",
"g.	c #BD8627",
"h.	c #B78326",
"i.	c #99761F",
"j.	c #97761E",
"k.	c #8E721C",
"l.	c #866E1B",
"m.	c #896F1B",
"n.	c #89701B",
"o.	c #896F1C",
"p.	c #8C711C",
"q.	c #B08024",
"r.	c #B38125",
"s.	c #A27B1E",
"t.	c #B6AA12",
"u.	c #98940B",
"v.	c #9F980C",
"w.	c #B6AB0F",
"x.	c #AD9E13",
"y.	c #C6BE12",
"z.	c #C4B41E",
"A.	c #A38C3C",
"B.	c #9F8A2F",
"C.	c #A17A22",
"D.	c #B28124",
"E.	c #9D781F",
"F.	c #99761E",
"G.	c #7D6919",
"H.	c #7F6A1A",
"I.	c #7C691A",
"J.	c #7A6819",
"K.	c #846D1A",
"L.	c #866D1B",
"M.	c #9E7820",
"N.	c #A27A21",
"O.	c #BA8427",
"P.	c #B98426",
"Q.	c #B18124",
"R.	c #9B852F",
"S.	c #978634",
"T.	c #9B9413",
"U.	c #A29B0C",
"V.	c #A49512",
"W.	c #C1BA11",
"X.	c #B1A414",
"Y.	c #A28B33",
"Z.	c #9C771C",
"`.	c #A57B20",
" +	c #AF8024",
".+	c #B08125",
"++	c #95741E",
"@+	c #8B6F1C",
"#+	c #816B1A",
"$+	c #896E1C",
"%+	c #8A6F1C",
"&+	c #B58326",
"*+	c #BC8527",
"=+	c #9D771D",
"-+	c #9B8929",
";+	c #BBB011",
">+	c #BCB210",
",+	c #C0AF17",
"'+	c #ACA60D",
")+	c #A79E0D",
"!+	c #9B940B",
"~+	c #ACA012",
"{+	c #A38633",
"]+	c #A47B1F",
"^+	c #96741F",
"/+	c #A67C22",
"(+	c #AE7F24",
"_+	c #B48225",
":+	c #A07920",
"<+	c #A77D22",
"[+	c #A07A20",
"}+	c #AE7E20",
"|+	c #AB883C",
"1+	c #756D33",
"2+	c #A49912",
"3+	c #CCBC19",
"4+	c #A39D0C",
"5+	c #928F0B",
"6+	c #837B13",
"7+	c #6E6316",
"8+	c #876E1D",
"9+	c #9C781F",
"0+	c #AA7D22",
"a+	c #B98427",
"b+	c #B18024",
"c+	c #B38225",
"d+	c #AB7E23",
"e+	c #93731D",
"f+	c #8A701D",
"g+	c #74661B",
"h+	c #938817",
"i+	c #CBBE19",
"j+	c #9B970B",
"k+	c #918C15",
"l+	c #958C1F",
"m+	c #706520",
"n+	c #7B6717",
"o+	c #846C1A",
"p+	c #AE7F23",
"q+	c #B28125",
"r+	c #AF7F24",
"s+	c #AA7E23",
"t+	c #AD7F24",
"u+	c #BA8527",
"v+	c #A87C22",
"w+	c #8F711D",
"x+	c #7D6918",
"y+	c #8A7324",
"z+	c #B9AE20",
"A+	c #BBAF1A",
"B+	c #BBAD15",
"C+	c #ADA80E",
"D+	c #7A702B",
"E+	c #6C6118",
"F+	c #6B6017",
"G+	c #7E691A",
"H+	c #B18125",
"I+	c #B88426",
"J+	c #B58225",
"K+	c #AA862E",
"L+	c #A9842E",
"M+	c #77591B",
"N+	c #9B751F",
"O+	c #8E701C",
"P+	c #7A691D",
"Q+	c #8E8227",
"R+	c #766D24",
"S+	c #CBC112",
"T+	c #B7AD1E",
"U+	c #928620",
"V+	c #7D6A1E",
"W+	c #8D711B",
"X+	c #8C701D",
"Y+	c #A67B22",
"Z+	c #BE8628",
"`+	c #AD7F23",
" @	c #BC8627",
".@	c #8E1E2E",
"+@	c #A77C21",
"@@	c #92721E",
"#@	c #856E22",
"$@	c #A1951A",
"%@	c #A19412",
"&@	c #B3A719",
"*@	c #948A2D",
"=@	c #8A7221",
"-@	c #89701A",
";@	c #796719",
">@	c #93731E",
",@	c #9F7821",
"'@	c #AC7E23",
")@	c #826B15",
"!@	c #947D38",
"~@	c #B4A614",
"{@	c #99980B",
"]@	c #958E1C",
"^@	c #75652A",
"/@	c #776614",
"(@	c #8C711B",
"_@	c #98761E",
":@	c #90711D",
"<@	c #9C771F",
"[@	c #9F7920",
"}@	c #7B6819",
"|@	c #7E6A1A",
"1@	c #6C6218",
"2@	c #9B9126",
"3@	c #C9BC18",
"4@	c #97970B",
"5@	c #9C950B",
"6@	c #A28D37",
"7@	c #756623",
"8@	c #836C18",
"9@	c #93741E",
"0@	c #AA7D23",
"a@	c #97751E",
"b@	c #AF7F23",
"c@	c #AF7E23",
"d@	c #816B1B",
"e@	c #836C1A",
"f@	c #866D19",
"g@	c #887223",
"h@	c #84781E",
"i@	c #98970B",
"j@	c #B3A80E",
"k@	c #B0A32A",
"l@	c #716422",
"m@	c #7E6917",
"n@	c #846C1B",
"o@	c #876E1C",
"p@	c #92731E",
"q@	c #A67B21",
"r@	c #837328",
"s@	c #826B1B",
"t@	c #886E1C",
"u@	c #896E1B",
"v@	c #876F1A",
"w@	c #866F1A",
"x@	c #967F37",
"y@	c #BBB116",
"z@	c #C7B518",
"A@	c #A0980C",
"B@	c #A89E1F",
"C@	c #70641E",
"D@	c #816B19",
"E@	c #886E1B",
"F@	c #8E711D",
"G@	c #856D1B",
"H@	c #736318",
"I@	c #90721D",
"J@	c #9E781F",
"K@	c #806B1A",
"L@	c #716318",
"M@	c #6E5F12",
"N@	c #746519",
"O@	c #9A9117",
"P@	c #A69812",
"Q@	c #98950B",
"R@	c #ABA011",
"S@	c #867B21",
"T@	c #6B5F16",
"U@	c #7A6718",
"V@	c #876E1A",
"W@	c #826C1A",
"X@	c #866D1A",
"Y@	c #7C6819",
"Z@	c #796616",
"`@	c #766F38",
" #	c #98940D",
".#	c #9F9511",
"+#	c #B3AA0F",
"@#	c #B1A51E",
"##	c #746B2C",
"$#	c #6B5E15",
"%#	c #6B5F15",
"&#	c #716217",
"*#	c #726317",
"=#	c #826C1B",
"-#	c #756518",
";#	c #806A1A",
">#	c #886C11",
",#	c #A79B13",
"'#	c #AAA50D",
")#	c #BEB319",
"!#	c #625F54",
"~#	c #7D7746",
"{#	c #6B6019",
"]#	c #74651C",
"^#	c #7C6919",
"/#	c #776618",
"(#	c #6E6117",
"_#	c #706217",
":#	c #B4AD32",
"<#	c #C8BE13",
"[#	c #BEAD16",
"}#	c #B2AD0E",
"|#	c #8C8A4F",
"1#	c #5E5C51",
"2#	c #806914",
"3#	c #6F6116",
"4#	c #736418",
"5#	c #766519",
"6#	c #7E6919",
"7#	c #796718",
"8#	c #866E1A",
"9#	c #726318",
"0#	c #6A5E17",
"a#	c #605D52",
"b#	c #ABA430",
"c#	c #B3AB0E",
"d#	c #AEA50E",
"e#	c #BDB210",
"f#	c #626054",
"g#	c #6A5E13",
"h#	c #6D611A",
"i#	c #6E631D",
"j#	c #6A5E14",
"k#	c #6F6217",
"l#	c #6D6015",
"m#	c #6A5D11",
"n#	c #756415",
"o#	c #836D1A",
"p#	c #856E1B",
"q#	c #706115",
"r#	c #876E1B",
"s#	c #6C5F13",
"t#	c #776413",
"u#	c #6D6119",
"v#	c #6A5E12",
"w#	c #625F55",
"x#	c #B5AC2A",
"y#	c #8A8752",
"z#	c #666355",
"A#	c #7B743F",
"B#	c #726826",
"C#	c #695D11",
"D#	c #7A743F",
"E#	c #746B30",
"F#	c #6D5F14",
"G#	c #6E6014",
"H#	c #716828",
"I#	c #6E621A",
"J#	c #6F6114",
"K#	c #6B5D12",
"L#	c #756C30",
"M#	c #79733E",
"N#	c #6E631E",
"O#	c #6C6017",
"P#	c #817C4F",
"Q#	c #756C2F",
"R#	c #6D6C5B",
"S#	c #A49712",
"T#	c #C9C312",
"U#	c #A69F3A",
"V#	c #615E53",
"W#	c #5E5B50",
"X#	c #6B6956",
"Y#	c #736A2B",
"Z#	c #7C7542",
"`#	c #676558",
" $	c #5F5C51",
".$	c #787038",
"+$	c #636155",
"@$	c #706725",
"#$	c #6C6956",
"$$	c #7A733D",
"%$	c #7B743E",
"&$	c #646256",
"*$	c #696658",
"=$	c #7D7A50",
"-$	c #B6AD29",
";$	c #ACA30E",
">$	c #AA9D13",
",$	c #C7C112",
"'$	c #979348",
")$	c #9F9A41",
"!$	c #817D4D",
"~$	c #636055",
"{$	c #626055",
"]$	c #5F5D52",
"^$	c #605E53",
"/$	c #ABA537",
"($	c #C7BE12",
"_$	c #CAB919",
":$	c #BCB510",
"<$	c #C3B911",
"[$	c #C1B710",
"}$	c #7E7D58",
"|$	c #615F54",
"1$	c #777559",
"2$	c #817E53",
"3$	c #C4B417",
"4$	c #A39E0D",
"5$	c #B4A810",
"6$	c #B0A510",
"7$	c #BAAB12",
"8$	c #C7BA13",
"9$	c #A9A132",
"0$	c #969148",
"a$	c #9F9841",
"b$	c #716E5A",
"c$	c #989046",
"d$	c #827F52",
"e$	c #797758",
"f$	c #989140",
"g$	c #87834C",
"h$	c #918A40",
"i$	c #757259",
"j$	c #807E4E",
"k$	c #898643",
"l$	c #949045",
"m$	c #948F49",
"n$	c #9A9444",
"o$	c #A09941",
"p$	c #C6B914",
"q$	c #A39711",
"r$	c #A79D0D",
"s$	c #C2B510",
"t$	c #A19A0D",
"u$	c #B1A514",
"v$	c #ADA317",
"w$	c #C7BA1B",
"x$	c #CCC018",
"y$	c #CCC118",
"z$	c #C7BA1A",
"A$	c #ADA018",
"B$	c #ADA017",
"C$	c #ABA017",
"D$	c #B7A81A",
"E$	c #CCC019",
"F$	c #CABA1E",
"G$	c #CEBE1E",
"H$	c #B9A224",
"I$	c #A59817",
"J$	c #C0AB20",
"K$	c #CBBE1B",
"L$	c #CBBA1C",
"M$	c #C8B91E",
"N$	c #AA9D19",
"O$	c #A29715",
"P$	c #AA9E17",
"Q$	c #AEA217",
"R$	c #C8BA1C",
"S$	c #CCC119",
"T$	c #CDC318",
"U$	c #C3B020",
"V$	c #A89A19",
"W$	c #ACA016",
"X$	c #B3A517",
"Y$	c #CCC023",
"  . + + + . . . + + + + + + + + +   . . . . @ # . + + . . + + $ ",
"% & * * * * & & * * * * * * * * * * & & = * - ; > , ' ) = * * ! ",
"~ { ] * & ^ / ( * _ & & : < & & & & [ } / | 1 ; / 2 3 4 ' 5 * 6 ",
"7 8 & * ] 8 9 0 2 a b & c d & & e f g h i j k l m n _ o p q * r ",
"3 s _ * * _ t u v w x y z A B C D E F z G H z I J & * * & * * K ",
"L M N & * * * O P Q R S S T U V V W X S S Y S Z Q ` * & _ & %  .",
"..+.@._ * * #.$.%.S F U &.&.W *.=.-.;.>.S S S T ,.'.).5 o !.t ~.",
"{.].^.* * /.(._.:.<.S [.}.|.>.1.2.3.4.5.X >.6.7.8.9.0.a.9 @.m b.",
"4 _ & * c.d.e.f.g.h.S i.j.k.l.m.|.l.n.o.>.p.7.h.q.r.s.t.u.v.w.x.",
"y.& z.A.B.C.D.D.q.q.E.2.6.F.G.H.I.J.K.L.M.&.N.O.P.Q.q.R.S.T.U.V.",
"W.* X.Y.Z.`. +O..+ +T W 8.W ++@+#+$+%+-.S S W &+*+Y  +=+-+;+>+,+",
"'+)+!+~+{+]+^+/+(+P.P._+T S T M.M.8.:+8./+S  +q.<+[+}+|+1+2+% 3+",
"4+5+6+7+8+9+M.0+a+*+O.U W S S [.8.S W Y b+S c+:.d+:+e+f+g+h+* i+",
"j+k+l+m+n+o+E.p+q+Y r+Y d+d+S Q.s+S U c+h.t+b+P.u+v+w+x+y+z+A+B+",
"C+D+E+F+G+i.W [. +d+H+a+(+f.b+I+J+t+f.K+L+M+M+N+t+7.8.O+P+Q+R+V.",
"S+T+U+V+W+X+H.Y+Z+`+Q.p+S  +h.u+ +r. @K+M+.@.@M+&.[.+@@@n+#@$@%@",
">+&@*@=@-@H.;@>@,@-.S S V [+7.'@d+q+&+&.M+.@.@M+&.&.o.H.)@!@!.~@",
"{@]@^@/@(@l._@i.M+M+S T 6.i.8.s+h.`+h.`+N+M+M+:@<@[@}@|@}@1@2@3@",
"4@5@6@7@8@4.9+M+.@.@M+[@S N.9@_+0@a@b@c@S &.&.&.H.d@e@f@g@1+h@3+",
"i@j@k@l@m@_@X M+.@.@M+n@i.a@o@S p@i.q@8.r@r@&.s@t@u@4.v@w@x@y@z@",
"4@A@B@C@D@;.5.n.M+M+E@&.F@&.G@s@t@[@N.H@.@.@r@s@I@J@K@L@M@N@O@P@",
"Q@R@S@T@U@4.K@4.V@W@[+i.d@M.^+M+M+E@;.H@.@.@r@H@;@X@Y@Z@`@1+ #.#",
"+#@###$#%#&#}@|.e@*#E@4.G.=#M+.@.@M+n.|.H@H@o+-#l.;#;@>#1+1+7 ,#",
"'#)#!#~#{#]#V@G.W@e@L@K.e@}@M+.@.@M+m.W@^#K@/#(#}@_#E+1+1+:#<#[#",
"}#; |#1#1+1+2#3#4#W@5#|.6#7#(@M+M+}@8#(@J.G.4.9#0#%#T@1+a#b#* K ",
"c#d#e#f#f#g#h#i#%#j#k#;@l#m#n#o#p#q#x+r#(#s#t#3#F+u#v#1+w#x#] b.",
"u 8 = y#f#f#z#A#h#B#v#C#i#D#E#F#G#H#I#J#K#L#M#N#O#P#Q#!#R#^.n S#",
"T#* * U#V#W#f#f#X#!#Y#Z#`# $V#.$1++$1+@$#$V# $$$%$&$*$=$-$q ;$>$",
",$_ ] & '$)$!$~$W#{$W# $ $W#W#]$^$ $W#V# $W#W#V# $W#/$& * * ($_$",
":$<$[$s & ] ] }$W#V#|$|$W#W#W#W#W#W#W#W#W#W#W#W#1$2$4 N & & s 3$",
"4$5$6$7$8$N N 9$0$a$b$c$d$e$f$g$h$i$j$k$l$m$n$o$p$7$q$r$s$4 t$u$",
"v$w$x$y$z$A$B$C$D$E$F$G$H$I$J$K$L$M$N$O$P$B$Q$R$S$T$U$V$C$W$X$Y$"};
