/* XPM */
static char * coleccio_xpm[] = {
"32 32 509 2",
"  	c #CEBC1F",
". 	c #CEBE1F",
"+ 	c #CDBC1F",
"@ 	c #C8BE12",
"# 	c #BFAF1C",
"$ 	c #C3B41C",
"% 	c #D1C127",
"& 	c #C9C012",
"* 	c #C8BC12",
"= 	c #C7BC12",
"- 	c #C9BC12",
"; 	c #A69D0D",
"> 	c #B0A60E",
", 	c #CBC013",
"' 	c #BCB010",
") 	c #B4A80F",
"! 	c #C7BA12",
"~ 	c #CBBA18",
"{ 	c #B6B00F",
"] 	c #C0B410",
"^ 	c #BEB410",
"/ 	c #ADA30E",
"( 	c #B4AA0E",
"_ 	c #C9BE12",
": 	c #C2B711",
"< 	c #AEA30E",
"[ 	c #B9AF0F",
"} 	c #C0B510",
"| 	c #C5BA11",
"1 	c #BAA815",
"2 	c #B7AD0F",
"3 	c #BFB410",
"4 	c #A59D0D",
"5 	c #99940B",
"6 	c #AFA315",
"7 	c #E2975F",
"8 	c #E19457",
"9 	c #D3A374",
"0 	c #D99F69",
"a 	c #E19759",
"b 	c #DC9C63",
"c 	c #CDA775",
"d 	c #E09359",
"e 	c #E0945B",
"f 	c #C9A46A",
"g 	c #BAB010",
"h 	c #ABA20D",
"i 	c #B8AD0F",
"j 	c #C1B511",
"k 	c #B3A80F",
"l 	c #C5B911",
"m 	c #BAAB15",
"n 	c #C4B911",
"o 	c #C0B511",
"p 	c #AAA20D",
"q 	c #E7A053",
"r 	c #FEA419",
"s 	c #FEA214",
"t 	c #F4A53A",
"u 	c #E6A565",
"v 	c #F7A42B",
"w 	c #FDA217",
"x 	c #FAA424",
"y 	c #E7A55F",
"z 	c #EFA446",
"A 	c #FEA316",
"B 	c #FEA417",
"C 	c #F0A344",
"D 	c #CCBE19",
"E 	c #97950B",
"F 	c #AFA50E",
"G 	c #C3B711",
"H 	c #D4916D",
"I 	c #FE9B19",
"J 	c #FFD71E",
"K 	c #FFE31E",
"L 	c #FDB41F",
"M 	c #FA8B1F",
"N 	c #FDC21F",
"O 	c #FFE21F",
"P 	c #FDCB1F",
"Q 	c #FA8E1E",
"R 	c #FBA71F",
"S 	c #FFE01F",
"T 	c #FFDE1F",
"U 	c #FDA319",
"V 	c #E89355",
"W 	c #CBBA19",
"X 	c #9F9D0C",
"Y 	c #A49B0C",
"Z 	c #BAAF10",
"` 	c #D3916C",
" .	c #FE931B",
"..	c #FDC51F",
"+.	c #FED020",
"@.	c #FBAA20",
"#.	c #F98720",
"$.	c #FBB520",
"%.	c #FECF1F",
"&.	c #FCBD20",
"*.	c #F98B20",
"=.	c #FB9F1F",
"-.	c #FDCE20",
";.	c #FECA1F",
">.	c #FC9A1A",
",.	c #E49451",
"'.	c #C6BC12",
").	c #C8B918",
"!.	c #BBB410",
"~.	c #C6BA11",
"{.	c #C6BA12",
"].	c #D3926B",
"^.	c #FE9D1C",
"/.	c #FDC81F",
"(.	c #FDC41F",
"_.	c #F88822",
":.	c #FBB51F",
"<.	c #FDC020",
"[.	c #FCBA1F",
"}.	c #F88C21",
"|.	c #FAA021",
"1.	c #FDC31F",
"2.	c #FEC820",
"3.	c #FCA51B",
"4.	c #E49554",
"5.	c #BEB210",
"6.	c #BEB016",
"7.	c #D3906B",
"8.	c #FE941A",
"9.	c #FDC61F",
"0.	c #FDBD20",
"a.	c #F99021",
"b.	c #F87F22",
"c.	c #F99821",
"d.	c #FDBE20",
"e.	c #FA9F21",
"f.	c #F88021",
"g.	c #F88921",
"h.	c #FBB621",
"i.	c #FCCA20",
"j.	c #FC9A19",
"k.	c #E49350",
"l.	c #98940B",
"m.	c #9F980C",
"n.	c #B6AB0F",
"o.	c #AD9E13",
"p.	c #C6BE12",
"q.	c #D4956F",
"r.	c #FFA11D",
"s.	c #FCB71F",
"t.	c #FBA221",
"u.	c #FCBC20",
"v.	c #FDC420",
"w.	c #FCB720",
"x.	c #FA9E21",
"y.	c #FBB220",
"z.	c #FAA421",
"A.	c #FBB420",
"B.	c #E8975A",
"C.	c #A39B0C",
"D.	c #9A940B",
"E.	c #A29B0C",
"F.	c #A49512",
"G.	c #C1BA11",
"H.	c #B1A60E",
"I.	c #B7AB0F",
"J.	c #E19E5F",
"K.	c #FB8A1F",
"L.	c #F9871F",
"M.	c #FEC51F",
"N.	c #FEDF1F",
"O.	c #FCBA20",
"P.	c #F88422",
"Q.	c #FBAE20",
"R.	c #FEDD1F",
"S.	c #F98F21",
"T.	c #FA841D",
"U.	c #ECA24E",
"V.	c #BDB210",
"W.	c #BCB210",
"X.	c #C0AF17",
"Y.	c #ACA60D",
"Z.	c #A79E0D",
"`.	c #9C950B",
" +	c #B2A60E",
".+	c #BBB010",
"++	c #B3A82A",
"@+	c #CA9C84",
"#+	c #FC841E",
"$+	c #F98D1E",
"%+	c #FDC01F",
"&+	c #FDC820",
"*+	c #F88922",
"=+	c #FBB020",
"-+	c #FDC91F",
";+	c #FA9720",
">+	c #FA7D1C",
",+	c #E0A063",
"'+	c #C6BA2D",
")+	c #CCBC19",
"!+	c #A39D0C",
"~+	c #928F0B",
"{+	c #95910B",
"]+	c #A09A0C",
"^+	c #C49076",
"/+	c #BD856A",
"(+	c #BC7B5D",
"_+	c #FD961D",
":+	c #F98F1F",
"<+	c #FDC720",
"[+	c #FCBB20",
"}+	c #F88A22",
"|+	c #FDC520",
"1+	c #FA8C1B",
"2+	c #E0AE64",
"3+	c #BE8164",
"4+	c #BD8267",
"5+	c #C49177",
"6+	c #CBBE19",
"7+	c #9B970B",
"8+	c #94910B",
"9+	c #B2A81F",
"0+	c #C1917C",
"a+	c #BD7A5C",
"b+	c #FE951D",
"c+	c #F8861E",
"d+	c #FECE1E",
"e+	c #FCB420",
"f+	c #F88421",
"g+	c #FAAB20",
"h+	c #FECC1E",
"i+	c #FA8B1B",
"j+	c #E2B065",
"k+	c #C78763",
"l+	c #BC7758",
"m+	c #C1927C",
"n+	c #BBAD15",
"o+	c #ADA80E",
"p+	c #C29079",
"q+	c #BA7456",
"r+	c #BF8267",
"s+	c #FDA121",
"t+	c #FAA024",
"u+	c #FDC023",
"v+	c #FDC226",
"w+	c #FDBC23",
"x+	c #FA9E28",
"y+	c #FCB623",
"z+	c #FDC325",
"A+	c #FDC125",
"B+	c #FBA524",
"C+	c #FC9A20",
"D+	c #E3B165",
"E+	c #CF936D",
"F+	c #BF7F63",
"G+	c #C2907A",
"H+	c #B5AA0F",
"I+	c #CBC112",
"J+	c #C2927C",
"K+	c #BC7B5E",
"L+	c #BD795B",
"M+	c #BF7F62",
"N+	c #C0856B",
"O+	c #CCA07C",
"P+	c #FFCA2E",
"Q+	c #FCC437",
"R+	c #FBAE30",
"S+	c #FDCD3C",
"T+	c #FBA72E",
"U+	c #FCCD3D",
"V+	c #FAAA2F",
"W+	c #FCC739",
"X+	c #FBB532",
"Y+	c #FCBD36",
"Z+	c #FECC30",
"`+	c #E0AD62",
" @	c #C58865",
".@	c #C08367",
"+@	c #BF7E62",
"@@	c #BD795A",
"#@	c #BC7B5F",
"$@	c #A19412",
"%@	c #C07F61",
"&@	c #BA7253",
"*@	c #BC795B",
"=@	c #C3866A",
"-@	c #C88E70",
";@	c #CDA17C",
">@	c #FFD32F",
",@	c #FED83B",
"'@	c #FBBE32",
")@	c #FDDC40",
"!@	c #FBB82F",
"~@	c #FDE141",
"{@	c #FCBD31",
"]@	c #FDD63D",
"^@	c #FCC535",
"/@	c #FDD13A",
"(@	c #FFD732",
"_@	c #DEAA60",
":@	c #C98C6C",
"<@	c #C07F62",
"[@	c #B4A614",
"}@	c #99980B",
"|@	c #97940B",
"1@	c #C08063",
"2@	c #BA7354",
"3@	c #BC785B",
"4@	c #C6896A",
"5@	c #D79C73",
"6@	c #D69A70",
"7@	c #FFCF2F",
"8@	c #FEDC3A",
"9@	c #FCCA31",
"0@	c #FDDF3F",
"a@	c #FCC52E",
"b@	c #FFE240",
"c@	c #FCC730",
"d@	c #FDDB3C",
"e@	c #FCCF34",
"f@	c #FED838",
"g@	c #FFD331",
"h@	c #DEAB60",
"i@	c #D59467",
"j@	c #D99C70",
"k@	c #C08064",
"l@	c #C9BC18",
"m@	c #97970B",
"n@	c #A19A0C",
"o@	c #C68A6B",
"p@	c #DCA072",
"q@	c #ECC14B",
"r@	c #FFDE39",
"s@	c #FDC830",
"t@	c #FDDD3F",
"u@	c #FCC32E",
"v@	c #FFE53F",
"w@	c #FDC630",
"x@	c #FDDA3C",
"y@	c #FDCD34",
"z@	c #FFD936",
"A@	c #EEC847",
"B@	c #DEA070",
"C@	c #DD9F70",
"D@	c #98970B",
"E@	c #B3A80E",
"F@	c #C1886D",
"G@	c #BB7658",
"H@	c #C58667",
"I@	c #D89A6F",
"J@	c #EBB541",
"K@	c #FFC72B",
"L@	c #FFE73C",
"M@	c #FABB2C",
"N@	c #E9B644",
"O@	c #F7B72F",
"P@	c #FFE439",
"Q@	c #FFD030",
"R@	c #EFB439",
"S@	c #E2A573",
"T@	c #C1886E",
"U@	c #C4BA11",
"V@	c #C7B518",
"W@	c #A0980C",
"X@	c #C9BD34",
"Y@	c #C0876E",
"Z@	c #BC7759",
"`@	c #BD7859",
" #	c #C78766",
".#	c #CD9770",
"+#	c #E6A942",
"@#	c #EBC147",
"##	c #E2A348",
"$#	c #CD9974",
"%#	c #DE9F4E",
"&#	c #EBBD46",
"*#	c #E9B142",
"=#	c #D39863",
"-#	c #D5996F",
";#	c #BC7859",
">#	c #C0886F",
",#	c #C6B833",
"'#	c #A69812",
")#	c #98950B",
"!#	c #BF876D",
"~#	c #BD7A5D",
"{#	c #C88967",
"]#	c #D99B70",
"^#	c #C79880",
"/#	c #C69375",
"(#	c #C69981",
"_#	c #C69B86",
":#	c #C59174",
"<#	c #C5967C",
"[#	c #D99B6F",
"}#	c #BB7659",
"|#	c #BF886E",
"1#	c #A49D0D",
"2#	c #9F9511",
"3#	c #B3AA0F",
"4#	c #C08468",
"5#	c #BB7657",
"6#	c #C68868",
"7#	c #E3A571",
"8#	c #E0A16F",
"9#	c #DFA06F",
"0#	c #C08469",
"a#	c #A79B13",
"b#	c #AAA50D",
"c#	c #C7B94B",
"d#	c #BF856B",
"e#	c #CA8A67",
"f#	c #D2956E",
"g#	c #D2966E",
"h#	c #C8B94B",
"i#	c #BEAD16",
"j#	c #B2AD0E",
"k#	c #BF8368",
"l#	c #BA7557",
"m#	c #BE7C5F",
"n#	c #C08265",
"o#	c #AA9F35",
"p#	c #B3AB0E",
"q#	c #AEA50E",
"r#	c #B2A80E",
"s#	c #B5A83D",
"t#	c #C08166",
"u#	c #BA7455",
"v#	c #B9AA57",
"w#	c #BE8268",
"x#	c #BB7456",
"y#	c #BB7557",
"z#	c #B7A957",
"A#	c #A8A00D",
"B#	c #BAAF0F",
"C#	c #A49712",
"D#	c #C9C312",
"E#	c #C6B93E",
"F#	c #C48869",
"G#	c #C4896A",
"H#	c #C7B93E",
"I#	c #ACA30E",
"J#	c #AA9D13",
"K#	c #C7C112",
"L#	c #C7BE12",
"M#	c #CAB919",
"N#	c #BCB510",
"O#	c #C3B911",
"P#	c #C1B710",
"Q#	c #C7BC11",
"R#	c #C2B710",
"S#	c #C9BE11",
"T#	c #B5AB0F",
"U#	c #C4B417",
"V#	c #A39E0D",
"W#	c #B4A810",
"X#	c #B0A510",
"Y#	c #BAAB12",
"Z#	c #C7BA13",
"`#	c #C3B710",
" $	c #C4B912",
".$	c #C6B714",
"+$	c #B1A014",
"@$	c #C0AF16",
"#$	c #B0A50F",
"$$	c #B8AB11",
"%$	c #A89D11",
"&$	c #A99B12",
"*$	c #A79B10",
"=$	c #9C950C",
"-$	c #A19B0B",
";$	c #BCB20F",
">$	c #C7B915",
",$	c #C6B914",
"'$	c #A39711",
")$	c #A79D0D",
"!$	c #C2B510",
"~$	c #A19A0D",
"{$	c #B1A514",
"]$	c #ADA317",
"^$	c #C7BA1B",
"/$	c #CCC018",
"($	c #CCC118",
"_$	c #C7BA1A",
":$	c #ADA018",
"<$	c #ADA017",
"[$	c #ABA017",
"}$	c #B7A81A",
"|$	c #CCC019",
"1$	c #CABA1E",
"2$	c #CEBE1E",
"3$	c #B9A224",
"4$	c #A59817",
"5$	c #C0AB20",
"6$	c #CBBE1B",
"7$	c #CBBA1C",
"8$	c #C8B91E",
"9$	c #AA9D19",
"0$	c #A29715",
"a$	c #AA9E17",
"b$	c #AEA217",
"c$	c #C8BA1C",
"d$	c #CCC119",
"e$	c #CDC318",
"f$	c #C3B020",
"g$	c #A89A19",
"h$	c #ACA016",
"i$	c #B3A517",
"j$	c #CCC023",
"  . + + + . . . + + + + + + + + +   . . @ @ # $ . + + . . + + % ",
"& * = = = = * * = = = = = = = = = = * * - @ ; > , ' ) ! - = = ~ ",
"{ ] @ = * ^ / ( = _ * @ * = = = * : > / / @ @ > / < [ } ) | = 1 ",
"2 3 * = @ 3 4 5 6 @ 7 8 9 @ 0 a b @ c d e f @ g h i _ j k l = m ",
"[ n _ = = _ o p @ q r s t u v w x y z A B C @ * * * = = * = = D ",
"E F G * = = = = H I J K L M N O P Q R S T U V = = = = * _ * & W ",
"X Y Z _ = = = = `  ...+.@.#.$.%.&.*.=.-.;.>.,.= = = * | j '.o ).",
"!.~.{.= = = = = ].^./.(.@._.:.<.[.}.|.1.2.3.4.= = = _ 5.4 Z h 6.",
"} _ * = = = = = 7.8.9.0.a.b.c.d.e.f.g.h.i.j.k._ = = = i l.m.n.o.",
"p.* {.{.= * * = q.r.s.t.u.v.w.x.y.v.d.z.A.3.B.= = _ 5.C.D.D.E.F.",
"G.= H.I.* = = = @ J.K.L.M.N.O.P.Q.R.%.S.T.U.@ = = * n ' V.V.W.X.",
"Y.Z.`. +.+4 ++@ @ @+#+$+%+&+O.*+=+-+v.;+>+,+@ @ @ '+* _ _ _ & )+",
"!+~+{+]+]+~+@ ^+/+(+_+:+<.<+[+}+y./.|+;+1+2+3+4+5+@ @ @ = = = 6+",
"7+8+Z.H.9+@ 0+a+(+(+b+c+u.d+e+f+g+h+N :+i+j+k+l+a+m+@ @ ~.@ * n+",
"o+/ ^ @ @ p+a+q+r+(+s+t+u+v+w+x+y+z+A+B+C+D+E+F+q+a+G+@ @ '.H+F.",
"I+_ * @ J+K+L+M+N+O+P+Q+R+S+T+U+V+W+X+Y+Z+`+ @.@+@@@#@J+@ @ / $@",
"W.' n @ %@&@*@=@-@;@>@,@'@)@!@~@{@]@^@/@(@_@k+:@=@*@&@<@@ @ '.[@",
"}@|@F @ 1@2@3@4@5@6@7@8@9@0@a@b@c@d@e@f@g@h@i@j@4@3@2@k@@ @ = l@",
"m@`.n@@ %@&@3@o@p@6@q@r@s@t@u@v@w@x@y@z@A@6@B@C@o@3@&@<@@ = @ )+",
"D@E@j @ F@G@3@H@I@6@6@J@K@L@M@N@O@P@Q@R@6@6@S@I@H@3@G@T@@ = U@V@",
"m@W@' X@@ Y@Z@`@ #6@6@.#+#@###$#%#&#*#=#6@6@-# #;#Z@>#@ ,#: Z.'#",
")#H.n * @ @ !#G@~#{#]#6@^#/#(#6@_#:#<#6@6@[#{#~#}#|#@ @ 1#C.l.2#",
"3#~._ = * @ @ 4#5#L+6#[#7#8#9#9#9#9#8#7#[#6#L+5#0#@ @ I.I.I.2 a#",
"b#j _ = = = c#@ d#Z@a+e#f#f#g#g#g#g#f#f#e#a+l+d#@ h#* _ _ _ @ i#",
"j#> ^ * = = _ @ @ k#l#m#n#n#n#n#n#n#n#n#m#l#k#@ o#Z @ = = = = D ",
"p#q#V.@ = * : r#s#@ t#l+u#u#u#u#u#u#u#u#l+t#@ @ ]+q#Z = = * @ 6.",
"p 3 - = = _ 3 > : v#@ w#x#y#y#y#y#y#y#x#w#@ z#A#B#' k {.* {.i C#",
"D#= = = = = = = = = E#@ F#G#G#G#G#G#G#F#@ H#= = * * = = * l I#J#",
"K#_ @ * = = = = = * _ @ @ @ @ @ @ @ @ @ @ * * * G : _ * = = L#M#",
"N#O#P#n * @ @ @ * Q#R#| n {.| } } } : : = _ @ S#T#/ } G * * n U#",
"V#W#X#Y#Z#G G `# $.$+$@$#$E@$$%$&$*$=$-$;$n G >$,$Y#'$)$!$} ~${$",
"]$^$/$($_$:$<$[$}$|$1$2$3$4$5$6$7$8$9$0$a$<$b$c$d$e$f$g$[$h$i$j$"};
