/* XPM */
static char * rabano_xpm[] = {
"32 32 503 2",
"  	c #CEBC1F",
". 	c #CEBE1F",
"+ 	c #CDBC1F",
"@ 	c #C7BC12",
"# 	c #D1C127",
"$ 	c #C9C012",
"% 	c #C8BC12",
"& 	c #437659",
"* 	c #2C6942",
"= 	c #327045",
"- 	c #326F45",
"; 	c #2F6E43",
"> 	c #648D72",
", 	c #6A8A75",
"' 	c #317145",
") 	c #316F45",
"! 	c #2D6A42",
"~ 	c #3D7353",
"{ 	c #B09E3E",
"] 	c #BCB010",
"^ 	c #B4A80F",
"/ 	c #C7BA12",
"( 	c #C9BC12",
"_ 	c #CBBA18",
": 	c #B6B00F",
"< 	c #C0B410",
"[ 	c #C8BE12",
"} 	c #BEB410",
"| 	c #ADA30E",
"1 	c #477A5D",
"2 	c #397D48",
"3 	c #4A9E48",
"4 	c #57B44A",
"5 	c #57B34A",
"6 	c #57B449",
"7 	c #4F9851",
"8 	c #46735C",
"9 	c #46725D",
"0 	c #4E9452",
"a 	c #58B44A",
"b 	c #4CA148",
"c 	c #3A8048",
"d 	c #427758",
"e 	c #AEA30E",
"f 	c #B9AF0F",
"g 	c #C0B510",
"h 	c #C5BA11",
"i 	c #BAA815",
"j 	c #B7AD0F",
"k 	c #BFB410",
"l 	c #A59D0D",
"m 	c #2A6643",
"n 	c #398246",
"o 	c #4A9D4A",
"p 	c #58B54B",
"q 	c #65CA4D",
"r 	c #66CD4D",
"s 	c #4EA548",
"t 	c #2D6F41",
"u 	c #2C6D41",
"v 	c #66CB4D",
"w 	c #65CB4D",
"x 	c #5AB74B",
"y 	c #4CA04A",
"z 	c #3B8647",
"A 	c #276340",
"B 	c #B8AD0F",
"C 	c #C9BE12",
"D 	c #C1B511",
"E 	c #B3A80F",
"F 	c #C5B911",
"G 	c #BAAB15",
"H 	c #C4B911",
"I 	c #C0B511",
"J 	c #2D6746",
"K 	c #398146",
"L 	c #3E8948",
"M 	c #469749",
"N 	c #5BB94C",
"O 	c #63C64D",
"P 	c #57B34B",
"Q 	c #469549",
"R 	c #459449",
"S 	c #55B04B",
"T 	c #5CBB4C",
"U 	c #499B49",
"V 	c #3B8447",
"W 	c #2A6542",
"X 	c #CCBE19",
"Y 	c #97950B",
"Z 	c #AFA50E",
"` 	c #C3B711",
" .	c #306B48",
"..	c #3F8A48",
"+.	c #469649",
"@.	c #5AB84C",
"#.	c #61C44D",
"$.	c #5DBD4C",
"%.	c #479849",
"&.	c #3F8B48",
"*.	c #2C6744",
"=.	c #CBBA19",
"-.	c #9F9D0C",
";.	c #A49B0C",
">.	c #BAAF10",
",.	c #6D8C7B",
"'.	c #3A754C",
").	c #27623E",
"!.	c #2C6941",
"~.	c #3D8848",
"{.	c #4BA04A",
"].	c #51AA4B",
"^.	c #52AA4B",
"/.	c #4DA24A",
"(.	c #2E6B42",
"_.	c #26623E",
":.	c #367349",
"<.	c #6A8F76",
"[.	c #C6BC12",
"}.	c #C8B918",
"|.	c #BBB410",
"1.	c #C6BA11",
"2.	c #C6BA12",
"3.	c #608472",
"4.	c #40615B",
"5.	c #3A6255",
"6.	c #367647",
"7.	c #367A45",
"8.	c #387C46",
"9.	c #398047",
"0.	c #357746",
"a.	c #3A6353",
"b.	c #3E5F5A",
"c.	c #597F6D",
"d.	c #BEB210",
"e.	c #ABA20D",
"f.	c #BEB016",
"g.	c #80878B",
"h.	c #2E564D",
"i.	c #1C453D",
"j.	c #235241",
"k.	c #2A6243",
"l.	c #245441",
"m.	c #275048",
"n.	c #7C8B89",
"o.	c #98940B",
"p.	c #9F980C",
"q.	c #B6AB0F",
"r.	c #AD9E13",
"s.	c #C6BE12",
"t.	c #787C80",
"u.	c #315256",
"v.	c #18463E",
"w.	c #255A42",
"x.	c #255B42",
"y.	c #19483E",
"z.	c #2B4E51",
"A.	c #737B7E",
"B.	c #A39B0C",
"C.	c #9A940B",
"D.	c #A29B0C",
"E.	c #A49512",
"F.	c #C1BA11",
"G.	c #B1A60E",
"H.	c #B7AB0F",
"I.	c #BD907E",
"J.	c #B67A69",
"K.	c #AD8286",
"L.	c #615A5E",
"M.	c #2B433B",
"N.	c #245B42",
"O.	c #245C42",
"P.	c #29453B",
"Q.	c #585457",
"R.	c #AD8586",
"S.	c #AC726E",
"T.	c #BDB210",
"U.	c #BCB210",
"V.	c #C0AF17",
"W.	c #ACA60D",
"X.	c #A79E0D",
"Y.	c #9C950B",
"Z.	c #B2A60E",
"`.	c #BBB010",
" +	c #B2A81F",
".+	c #C29E7D",
"++	c #BB795D",
"@+	c #AF7B7F",
"#+	c #AE4F56",
"$+	c #992B38",
"%+	c #663D39",
"&+	c #2A5B42",
"*+	c #275C42",
"=+	c #5F413A",
"-+	c #972C38",
";+	c #AB464F",
">+	c #B58184",
",+	c #B67660",
"'+	c #C29E7E",
")+	c #CCBC19",
"!+	c #A39D0C",
"~+	c #928F0B",
"{+	c #95910B",
"]+	c #A09A0C",
"^+	c #C49076",
"/+	c #BD8266",
"(+	c #B87A64",
"_+	c #B07E83",
":+	c #B95C64",
"<+	c #C5333E",
"[+	c #CA2E3A",
"}+	c #B33B3F",
"|+	c #914843",
"1+	c #904943",
"2+	c #B55051",
"3+	c #D24953",
"4+	c #C7333E",
"5+	c #BB585F",
"6+	c #A97682",
"7+	c #B67967",
"8+	c #BD8267",
"9+	c #C49177",
"0+	c #CBBE19",
"a+	c #9B970B",
"b+	c #94910B",
"c+	c #C1917C",
"d+	c #BD7A5C",
"e+	c #BC7758",
"f+	c #BD816A",
"g+	c #AB626D",
"h+	c #B62A35",
"i+	c #E13942",
"j+	c #E73C45",
"k+	c #E63B44",
"l+	c #E83B44",
"m+	c #EE545B",
"n+	c #F36369",
"o+	c #E84B53",
"p+	c #BA2C38",
"q+	c #B06168",
"r+	c #C4886E",
"s+	c #C1927C",
"t+	c #BBAD15",
"u+	c #ADA80E",
"v+	c #C9C015",
"w+	c #C29079",
"x+	c #BA7456",
"y+	c #BF7F63",
"z+	c #C68D73",
"A+	c #A9626D",
"B+	c #B32A36",
"C+	c #DE3942",
"D+	c #E43B44",
"E+	c #E33B44",
"F+	c #E43D46",
"G+	c #EA4D55",
"H+	c #ED656B",
"I+	c #BC3B46",
"J+	c #AC5F67",
"K+	c #CB9376",
"L+	c #C2907A",
"M+	c #C6BA14",
"N+	c #B5AA0F",
"O+	c #CBC112",
"P+	c #C2927C",
"Q+	c #BC7B5E",
"R+	c #BD795B",
"S+	c #BF7F62",
"T+	c #C08367",
"U+	c #BC826C",
"V+	c #89636D",
"W+	c #7F2833",
"X+	c #B62D39",
"Y+	c #C02F3A",
"Z+	c #BE2F3A",
"`+	c #BE2D39",
" @	c #C0353F",
".@	c #C0444E",
"+@	c #862F3A",
"@@	c #886067",
"#@	c #BF8970",
"$@	c #BF7E62",
"%@	c #BD795A",
"&@	c #BC7B5F",
"*@	c #A19412",
"=@	c #C07F61",
"-@	c #BA7253",
";@	c #BC795B",
">@	c #C3866A",
",@	c #C98C6C",
"'@	c #BB816A",
")@	c #6F636C",
"!@	c #55252F",
"~@	c #992532",
"{@	c #A32633",
"]@	c #A12633",
"^@	c #A22532",
"/@	c #9C2532",
"(@	c #5B222D",
"_@	c #6C6068",
":@	c #BE886D",
"<@	c #C07F62",
"[@	c #B4A614",
"}@	c #99980B",
"|@	c #97940B",
"1@	c #C08063",
"2@	c #BA7354",
"3@	c #BC785B",
"4@	c #C6896A",
"5@	c #D99C70",
"6@	c #C78C6E",
"7@	c #73646D",
"8@	c #5A2831",
"9@	c #972532",
"0@	c #A22633",
"a@	c #9B2633",
"b@	c #5E242F",
"c@	c #706369",
"d@	c #CB9472",
"e@	c #C08064",
"f@	c #C9BC18",
"g@	c #97970B",
"h@	c #A19A0C",
"i@	c #C68A6B",
"j@	c #DDA070",
"k@	c #CC9070",
"l@	c #9D7C7A",
"m@	c #815047",
"n@	c #692832",
"o@	c #8E2432",
"p@	c #A42633",
"q@	c #922532",
"r@	c #6B2632",
"s@	c #7D4943",
"t@	c #9E7C77",
"u@	c #D19874",
"v@	c #DD9F70",
"w@	c #98970B",
"x@	c #B3A80E",
"y@	c #C1886D",
"z@	c #BB7658",
"A@	c #C58667",
"B@	c #D89A6F",
"C@	c #D59771",
"D@	c #BE9790",
"E@	c #AB8372",
"F@	c #6B4443",
"G@	c #8C2B34",
"H@	c #A42432",
"I@	c #902934",
"J@	c #6A4040",
"K@	c #A37C6C",
"L@	c #C0988F",
"M@	c #D79A73",
"N@	c #C1886E",
"O@	c #C4BA11",
"P@	c #C7B518",
"Q@	c #A0980C",
"R@	c #C0876E",
"S@	c #BC7759",
"T@	c #BD7859",
"U@	c #C78766",
"V@	c #D6996F",
"W@	c #E0A474",
"X@	c #CDA389",
"Y@	c #B7816E",
"Z@	c #A84242",
"`@	c #A22733",
" #	c #A32935",
".#	c #A73D3F",
"+#	c #B57B69",
"@#	c #CDA387",
"##	c #E0A574",
"$#	c #D5996F",
"%#	c #BC7859",
"&#	c #C0886F",
"*#	c #C2B711",
"=#	c #A69812",
"-#	c #98950B",
";#	c #BF876D",
">#	c #BD7A5D",
",#	c #C88967",
"'#	c #D99B6F",
")#	c #DEAA7F",
"!#	c #CDA189",
"~#	c #BA766A",
"{#	c #B55D50",
"]#	c #B65F52",
"^#	c #BA7265",
"/#	c #CEA087",
"(#	c #DEA97E",
"_#	c #BB7659",
":#	c #BF886E",
"<#	c #AEA335",
"[#	c #A49D0D",
"}#	c #9F9511",
"|#	c #B3AA0F",
"1#	c #C08468",
"2#	c #BB7657",
"3#	c #C68868",
"4#	c #E2A572",
"5#	c #C8A694",
"6#	c #C69982",
"7#	c #C69A83",
"8#	c #C8A48F",
"9#	c #C08469",
"0#	c #C3B627",
"a#	c #A79B13",
"b#	c #AAA50D",
"c#	c #BF856B",
"d#	c #CA8A67",
"e#	c #D2956E",
"f#	c #D2966E",
"g#	c #BEAD16",
"h#	c #B2AD0E",
"i#	c #B0A60E",
"j#	c #BF8368",
"k#	c #BA7557",
"l#	c #BE7C5F",
"m#	c #C08265",
"n#	c #B3AB0E",
"o#	c #AEA50E",
"p#	c #C08166",
"q#	c #BA7455",
"r#	c #AAA20D",
"s#	c #BE8268",
"t#	c #BB7456",
"u#	c #BB7557",
"v#	c #A8A00D",
"w#	c #A49712",
"x#	c #C9C312",
"y#	c #C6B93E",
"z#	c #C48869",
"A#	c #C4896A",
"B#	c #C7B93E",
"C#	c #ACA30E",
"D#	c #AA9D13",
"E#	c #C7C112",
"F#	c #C7BE12",
"G#	c #CAB919",
"H#	c #BCB510",
"I#	c #C3B911",
"J#	c #C1B710",
"K#	c #C7BC11",
"L#	c #C2B710",
"M#	c #C9BE11",
"N#	c #B5AB0F",
"O#	c #C4B417",
"P#	c #A39E0D",
"Q#	c #B4A810",
"R#	c #B0A510",
"S#	c #BAAB12",
"T#	c #C7BA13",
"U#	c #C3B710",
"V#	c #C4B912",
"W#	c #C6B714",
"X#	c #B1A014",
"Y#	c #C0AF16",
"Z#	c #B0A50F",
"`#	c #B8AB11",
" $	c #A89D11",
".$	c #A99B12",
"+$	c #A79B10",
"@$	c #9C950C",
"#$	c #A19B0B",
"$$	c #BCB20F",
"%$	c #C7B915",
"&$	c #C6B914",
"*$	c #A39711",
"=$	c #A79D0D",
"-$	c #C2B510",
";$	c #A19A0D",
">$	c #B1A514",
",$	c #ADA317",
"'$	c #C7BA1B",
")$	c #CCC018",
"!$	c #CCC118",
"~$	c #C7BA1A",
"{$	c #ADA018",
"]$	c #ADA017",
"^$	c #ABA017",
"/$	c #B7A81A",
"($	c #CCC019",
"_$	c #CABA1E",
":$	c #CEBE1E",
"<$	c #B9A224",
"[$	c #A59817",
"}$	c #C0AB20",
"|$	c #CBBE1B",
"1$	c #CBBA1C",
"2$	c #C8B91E",
"3$	c #AA9D19",
"4$	c #A29715",
"5$	c #AA9E17",
"6$	c #AEA217",
"7$	c #C8BA1C",
"8$	c #CCC119",
"9$	c #CDC318",
"0$	c #C3B020",
"a$	c #A89A19",
"b$	c #ACA016",
"c$	c #B3A517",
"d$	c #CCC023",
"  . + + + . . . @ @ @ @ @ @ @ @ @ @ @ @ @ @ @ @ . + + . . + + # ",
"$ % @ @ @ @ % @ @ & * = - ; > @ @ , ' ) = ! ~ @ { ] ^ / ( @ @ _ ",
": < [ @ % } | @ 1 2 3 4 5 6 7 8 9 0 5 5 a b c d @ e f g ^ h @ i ",
"j k % @ [ k l @ m n o p q r s t u 3 v w x y z A @ B C D E F @ G ",
"f H C @ @ C I @ J K L M N O P Q R S O T U L V W @ % @ @ % @ @ X ",
"Y Z ` % @ @ @ @  .K L ..+.@.#.$.$.#.T %.&.L V *.@ @ @ % C % $ =.",
"-.;.>.C @ @ @ @ ,.'.).!.~.{.].].].^./.&.(._.:.<.@ @ % h D [.I }.",
"|.1.2.@ @ @ @ @ @ 3.4.5.6.7.8.9.9.8.7.0.a.b.c.@ @ @ C d.l >.e.f.",
"g C % @ @ @ @ @ @ @ @ g.h.i.j.k.k.l.i.m.n.@ @ @ @ @ @ B o.p.q.r.",
"s.% 2.2.@ % % @ @ @ @ @ t.u.v.w.x.y.z.A.@ @ @ @ @ C d.B.C.C.D.E.",
"F.@ G.H.% @ @ @ @ @ I.J.K.L.M.N.O.P.Q.R.S.I.@ @ @ % H ] T.T.U.V.",
"W.X.Y.Z.`.l @  + +.+++@+#+$+%+&+*+=+-+;+>+,+'+@ @ @ @ C C C $ )+",
"!+~+{+]+]+@  +^+/+(+_+:+<+[+}+|+1+2+3+4+5+6+7+8+9+@ @ [ @ @ @ 0+",
"a+b+X.G.@ @ c+d+e+f+g+h+i+j+k+l+l+m+n+o+p+q+r+e+d+s+ +@ 1.[ % t+",
"u+| } v+ +w+d+x+y+z+A+B+C+D+E+D+D+F+G+H+I+J+K+y+x+d+L+ +M+[.N+E.",
"O+C %  +P+Q+R+S+T+U+V+W+X+Y+Z+Z+Z+`+ @.@+@@@#@T+$@%@&@P+ +h | *@",
"U.] H  +=@-@;@>@,@'@)@!@~@{@]@]@]@]@^@/@(@_@:@,@>@;@-@<@ +% [.[@",
"}@|@Z  +1@2@3@4@5@6@7@8@9@{@0@0@0@0@0@a@b@c@d@5@4@3@2@e@ +@ @ f@",
"g@Y.h@ +=@-@3@i@j@k@l@m@n@o@p@0@0@p@q@r@s@t@u@v@i@3@-@<@ +@ [ )+",
"w@x@D  +y@z@3@A@B@C@D@E@F@G@H@^@^@H@I@J@K@L@M@B@A@3@z@N@ +@ O@P@",
"g@Q@] @  +R@S@T@U@V@W@X@Y@Z@`@ # #`@.#+#@###$#U@%#S@&# + +*#X.=#",
"-#G.H % @  +;#z@>#,#'#)#!#~#{#]#]#{#^#/#(#'#,#>#_#:# +<#[#B.o.}#",
"|#1.C @ %  + +1#2#R+3#'#4#5#6#7#7#6#8#4#'#3#R+2#9# +0#H.H.H.j a#",
"b#D C @ @ @ @  +c#S@d+d#e#e#f#f#f#f#e#e#d#d+e+c# +@ % C C C [ g#",
"h#i#} % @ @ C @  +j#k#l#m#m#m#m#m#m#m#m#l#k#j# +@ @ [ @ @ @ @ X ",
"n#o#T.[ @ % *#@ @  +p#e+q#q#q#q#q#q#q#q#e+p# +@ ]+o#>.@ @ % [ f.",
"r#k ( @ @ C k i#*# + +s#t#u#u#u#u#u#u#t#s# +@ v#@ ] E 2.% 2.B w#",
"x#@ @ @ @ @ @ @ @ @ y# +z#A#A#A#A#A#A#z# +B#@ @ @ % @ @ % F C#D#",
"E#C [ % @ @ @ @ @ % C @  + + + + + + + +@ % % % ` *#C % @ @ F#G#",
"H#I#J#H % [ [ [ % K#L#h H 2.h g g g *#*#@ C [ M#N#| g ` % % H O#",
"P#Q#R#S#T#` ` U#V#W#X#Y#Z#x@`# $.$+$@$#$$$H ` %$&$S#*$=$-$g ;$>$",
",$'$)$!$~${$]$^$/$($_$:$<$[$}$|$1$2$3$4$5$]$6$7$8$9$0$a$^$b$c$d$"};
