/* XPM */
static char * rabano2_xpm[] = {
"32 32 543 2",
"  	c #CEBC1F",
". 	c #CEBE1F",
"+ 	c #CDBC1F",
"@ 	c #BFAF1C",
"# 	c #C3B41C",
"$ 	c #D1C127",
"% 	c #C9C012",
"& 	c #C8BC12",
"* 	c #C7BC12",
"= 	c #90AA8D",
"- 	c #8CA98D",
"; 	c #C2BC29",
"> 	c #99AF89",
", 	c #8BAA8D",
"' 	c #96A790",
") 	c #C0BB3C",
"! 	c #A69D0D",
"~ 	c #B0A60E",
"{ 	c #CBC013",
"] 	c #BCB010",
"^ 	c #B4A80F",
"/ 	c #C7BA12",
"( 	c #C9BC12",
"_ 	c #CBBA18",
": 	c #B6B00F",
"< 	c #C0B410",
"[ 	c #C8BE12",
"} 	c #BEB410",
"| 	c #ADA30E",
"1 	c #B4AA0E",
"2 	c #8CB98F",
"3 	c #56AF70",
"4 	c #50AD6B",
"5 	c #75B588",
"6 	c #A0B57B",
"7 	c #62B279",
"8 	c #4DAC6A",
"9 	c #65B57C",
"0 	c #9DAD77",
"a 	c #ADA140",
"b 	c #B0A610",
"c 	c #AEA30E",
"d 	c #B9AF0F",
"e 	c #C0B510",
"f 	c #C5BA11",
"g 	c #BAA815",
"h 	c #B7AD0F",
"i 	c #BFB410",
"j 	c #A59D0D",
"k 	c #99940B",
"l 	c #7EB48F",
"m 	c #62B66C",
"n 	c #5EC055",
"o 	c #5DC153",
"p 	c #5DB159",
"q 	c #5E9A65",
"r 	c #5F9567",
"s 	c #5DA161",
"t 	c #5DBA56",
"u 	c #5FBD5B",
"v 	c #66B278",
"w 	c #90B79D",
"x 	c #B8B11D",
"y 	c #ABA20D",
"z 	c #B8AD0F",
"A 	c #C9BE12",
"B 	c #C1B511",
"C 	c #B3A80F",
"D 	c #C5B911",
"E 	c #BAAB15",
"F 	c #C4B911",
"G 	c #C0B511",
"H 	c #AAA20D",
"I 	c #A8A00D",
"J 	c #A4AE52",
"K 	c #61AD7E",
"L 	c #49A859",
"M 	c #56B24B",
"N 	c #61C34B",
"O 	c #5CBC4A",
"P 	c #4CA447",
"Q 	c #49A046",
"R 	c #51AB48",
"S 	c #60C34B",
"T 	c #5DBD4B",
"U 	c #52AD4F",
"V 	c #49A763",
"W 	c #7DB48C",
"X 	c #C4BC1F",
"Y 	c #CCBE19",
"Z 	c #97950B",
"` 	c #AFA50E",
" .	c #C3B711",
"..	c #73B48B",
"+.	c #499961",
"@.	c #418D4A",
"#.	c #55AF4B",
"$.	c #61C44D",
"%.	c #62C54D",
"&.	c #62C64D",
"*.	c #62C44D",
"=.	c #5FC04D",
"-.	c #4CA149",
";.	c #418C4F",
">.	c #54A46F",
",.	c #8BB995",
"'.	c #C4BC1D",
").	c #CBBA19",
"!.	c #9F9D0C",
"~.	c #A49B0C",
"{.	c #BAAF10",
"].	c #C6BC19",
"^.	c #AEAE6D",
"/.	c #6C8F7D",
"(.	c #306F48",
"_.	c #3D8947",
":.	c #52AB4B",
"<.	c #65CB4D",
"[.	c #5EBE4D",
"}.	c #4C9F4A",
"|.	c #337B44",
"1.	c #3E7757",
"2.	c #899989",
"3.	c #C7BC13",
"4.	c #C6BC12",
"5.	c #C8B918",
"6.	c #BBB410",
"7.	c #C6BA11",
"8.	c #C6BA12",
"9.	c #737F43",
"0.	c #437542",
"a.	c #3C8A48",
"b.	c #52AC4B",
"c.	c #4CA24A",
"d.	c #377F47",
"e.	c #52743D",
"f.	c #878D57",
"g.	c #BEB210",
"h.	c #BEB016",
"i.	c #C5B918",
"j.	c #DEA83E",
"k.	c #69723D",
"l.	c #336943",
"m.	c #3C8447",
"n.	c #3E8947",
"o.	c #397C46",
"p.	c #396441",
"q.	c #988639",
"r.	c #EDB44F",
"s.	c #BEAD33",
"t.	c #98940B",
"u.	c #9F980C",
"v.	c #B6AB0F",
"w.	c #AD9E13",
"x.	c #C6BE12",
"y.	c #FAC858",
"z.	c #F3C651",
"A.	c #B1733D",
"B.	c #6A5339",
"C.	c #306643",
"D.	c #256A45",
"E.	c #416040",
"F.	c #845337",
"G.	c #CD9544",
"H.	c #FDD155",
"I.	c #F5C25E",
"J.	c #C2AD37",
"K.	c #A39B0C",
"L.	c #9A940B",
"M.	c #A29B0C",
"N.	c #A49512",
"O.	c #C1BA11",
"P.	c #B1A60E",
"Q.	c #B7AB0F",
"R.	c #F9BF4F",
"S.	c #FFCE47",
"T.	c #F9C84E",
"U.	c #E58939",
"V.	c #AB6133",
"W.	c #62543A",
"X.	c #53513B",
"Y.	c #785738",
"Z.	c #C76A32",
"`.	c #EFA342",
" +	c #FED14F",
".+	c #FFC844",
"++	c #F0B95F",
"@+	c #CAB943",
"#+	c #BDB210",
"$+	c #BCB210",
"%+	c #C0AF17",
"&+	c #ACA60D",
"*+	c #A79E0D",
"=+	c #9C950B",
"-+	c #B2A60E",
";+	c #BBB010",
">+	c #B3A82A",
",+	c #DE996F",
"'+	c #F38D37",
")+	c #FCCA51",
"!+	c #FECC4B",
"~+	c #FDB237",
"{+	c #FCAC34",
"]+	c #E48C33",
"^+	c #BE5B33",
"/+	c #B75133",
"(+	c #C96933",
"_+	c #F29D33",
":+	c #FDAE34",
"<+	c #FEB93D",
"[+	c #FED453",
"}+	c #F9B346",
"|+	c #F08940",
"1+	c #C89889",
"2+	c #C6BA2D",
"3+	c #CCBC19",
"4+	c #A39D0C",
"5+	c #928F0B",
"6+	c #95910B",
"7+	c #A09A0C",
"8+	c #C49076",
"9+	c #CB856C",
"0+	c #D9652B",
"a+	c #F28E34",
"b+	c #FCA636",
"c+	c #FEAE34",
"d+	c #FFAF34",
"e+	c #F8B13E",
"f+	c #EDB34E",
"g+	c #EAB451",
"h+	c #F0B249",
"i+	c #FDB038",
"j+	c #FFAF33",
"k+	c #FEAC34",
"l+	c #FBA137",
"m+	c #E97D2E",
"n+	c #D56A3A",
"o+	c #BC8282",
"p+	c #CBBE19",
"q+	c #9B970B",
"r+	c #94910B",
"s+	c #C1917C",
"t+	c #BD7A5C",
"u+	c #C07D6D",
"v+	c #C8502B",
"w+	c #ED6B22",
"x+	c #FB8726",
"y+	c #FC9E2F",
"z+	c #FEA932",
"A+	c #FFC444",
"B+	c #FFE760",
"C+	c #FFEE65",
"D+	c #FFDD58",
"E+	c #FEB73B",
"F+	c #FDA530",
"G+	c #FB962C",
"H+	c #F97D23",
"I+	c #DF5E22",
"J+	c #C35B3D",
"K+	c #B57B82",
"L+	c #C1927C",
"M+	c #B7AB20",
"N+	c #BBAD15",
"O+	c #ADA80E",
"P+	c #C29079",
"Q+	c #BA7456",
"R+	c #C28575",
"S+	c #C95833",
"T+	c #EA6C25",
"U+	c #F77722",
"V+	c #F88025",
"W+	c #FC9D2E",
"X+	c #FEC043",
"Y+	c #FEE15C",
"Z+	c #FEE761",
"`+	c #FED754",
" @	c #FEB239",
".@	c #FA902A",
"+@	c #F77A23",
"@@	c #F57523",
"#@	c #DF6328",
"$@	c #C56547",
"%@	c #B77F82",
"&@	c #C2907A",
"*@	c #C6BA14",
"=@	c #B5AA0F",
"-@	c #CBC112",
";@	c #C2927C",
">@	c #BC7B5E",
",@	c #BD795B",
"'@	c #BF7F62",
")@	c #D79E76",
"!@	c #C58676",
"~@	c #D0673D",
"{@	c #E36423",
"]@	c #F67623",
"^@	c #F98426",
"/@	c #FB9E32",
"(@	c #FEBF42",
"_@	c #FEC546",
":@	c #FDB53E",
"<@	c #FA922C",
"[@	c #F97F24",
"}@	c #F17023",
"|@	c #DB5F27",
"1@	c #CC7353",
"2@	c #BE8983",
"3@	c #C08D7B",
"4@	c #BD795A",
"5@	c #BC7B5F",
"6@	c #A19412",
"7@	c #C07F61",
"8@	c #BA7253",
"9@	c #BC795B",
"0@	c #C3866A",
"a@	c #C38B76",
"b@	c #C0634E",
"c@	c #D75A25",
"d@	c #F67422",
"e@	c #F87522",
"f@	c #FA8827",
"g@	c #FDA932",
"h@	c #FEAF34",
"i@	c #FC9F2E",
"j@	c #F87D24",
"k@	c #F87621",
"l@	c #EE6E24",
"m@	c #CA532B",
"n@	c #BE786D",
"o@	c #BB807C",
"p@	c #C07F62",
"q@	c #B4A614",
"r@	c #99980B",
"s@	c #97940B",
"t@	c #C08063",
"u@	c #BA7354",
"v@	c #BC785B",
"w@	c #C6896A",
"x@	c #D99C70",
"y@	c #CD9477",
"z@	c #C0654F",
"A@	c #D65B27",
"B@	c #F47323",
"C@	c #F77522",
"D@	c #FA8928",
"E@	c #FDAA33",
"F@	c #FEB035",
"G@	c #FCA02F",
"H@	c #F87E24",
"I@	c #F77521",
"J@	c #ED6D25",
"K@	c #CB552C",
"L@	c #BF796D",
"M@	c #C2847B",
"N@	c #C08064",
"O@	c #C9BC18",
"P@	c #97970B",
"Q@	c #A19A0C",
"R@	c #C68A6B",
"S@	c #DDA070",
"T@	c #D4A281",
"U@	c #C27E68",
"V@	c #C8613B",
"W@	c #D95D28",
"X@	c #EF6D21",
"Y@	c #FC8A26",
"Z@	c #FFAB31",
"`@	c #FFB133",
" #	c #FEA12D",
".#	c #E66623",
"+#	c #D25D2E",
"@#	c #C56846",
"##	c #C38F7F",
"$#	c #D69B76",
"%#	c #98970B",
"&#	c #B3A80E",
"*#	c #C1886D",
"=#	c #BB7658",
"-#	c #C58667",
";#	c #D89A6F",
">#	c #C4A08F",
",#	c #C07760",
"'#	c #C35C3D",
")#	c #DE6E34",
"!#	c #ED8837",
"~#	c #F0A03E",
"{#	c #F0A540",
"]#	c #EF9A3C",
"^#	c #EA7E34",
"/#	c #D36535",
"(#	c #BF6146",
"_#	c #C18771",
":#	c #D79B72",
"<#	c #C1886E",
"[#	c #C4BA11",
"}#	c #C7B518",
"|#	c #A0980C",
"1#	c #C9BD34",
"2#	c #C0876E",
"3#	c #BC7759",
"4#	c #BD7859",
"5#	c #C78766",
"6#	c #C59D8F",
"7#	c #C58769",
"8#	c #C88764",
"9#	c #CB8C65",
"0#	c #CB8F66",
"a#	c #CB9067",
"b#	c #CB8E66",
"c#	c #CA8A65",
"d#	c #C78563",
"e#	c #C48E75",
"f#	c #BC7859",
"g#	c #C0886F",
"h#	c #C6B833",
"i#	c #C2B711",
"j#	c #A69812",
"k#	c #98950B",
"l#	c #BF876D",
"m#	c #BD7A5D",
"n#	c #C88967",
"o#	c #D99B6F",
"p#	c #BC8F8E",
"q#	c #B98B8C",
"r#	c #B88A8B",
"s#	c #B88A8C",
"t#	c #B8898C",
"u#	c #B98C8C",
"v#	c #BA8B8B",
"w#	c #BB7659",
"x#	c #BF886E",
"y#	c #AEA335",
"z#	c #A49D0D",
"A#	c #9F9511",
"B#	c #B3AA0F",
"C#	c #C08468",
"D#	c #BB7657",
"E#	c #C68868",
"F#	c #E3A571",
"G#	c #E0A16F",
"H#	c #DFA06F",
"I#	c #C08469",
"J#	c #C3B627",
"K#	c #A79B13",
"L#	c #AAA50D",
"M#	c #BF856B",
"N#	c #CA8A67",
"O#	c #D2956E",
"P#	c #D2966E",
"Q#	c #BC7758",
"R#	c #C8B94B",
"S#	c #BEAD16",
"T#	c #B2AD0E",
"U#	c #BF8368",
"V#	c #BA7557",
"W#	c #BE7C5F",
"X#	c #C08265",
"Y#	c #AA9F35",
"Z#	c #B3AB0E",
"`#	c #AEA50E",
" $	c #B2A80E",
".$	c #B5A83D",
"+$	c #C08166",
"@$	c #BA7455",
"#$	c #A29A3A",
"$$	c #BE8268",
"%$	c #BB7456",
"&$	c #BB7557",
"*$	c #BAAF0F",
"=$	c #A49712",
"-$	c #C9C312",
";$	c #C6B93E",
">$	c #C48869",
",$	c #C4896A",
"'$	c #C7B93E",
")$	c #ACA30E",
"!$	c #AA9D13",
"~$	c #C7C112",
"{$	c #C7BE12",
"]$	c #CAB919",
"^$	c #BCB510",
"/$	c #C3B911",
"($	c #C1B710",
"_$	c #C7BC11",
":$	c #C2B710",
"<$	c #C9BE11",
"[$	c #B5AB0F",
"}$	c #C4B417",
"|$	c #A39E0D",
"1$	c #B4A810",
"2$	c #B0A510",
"3$	c #BAAB12",
"4$	c #C7BA13",
"5$	c #C3B710",
"6$	c #C4B912",
"7$	c #C6B714",
"8$	c #B1A014",
"9$	c #C0AF16",
"0$	c #B0A50F",
"a$	c #B8AB11",
"b$	c #A89D11",
"c$	c #A99B12",
"d$	c #A79B10",
"e$	c #9C950C",
"f$	c #A19B0B",
"g$	c #BCB20F",
"h$	c #C7B915",
"i$	c #C6B914",
"j$	c #A39711",
"k$	c #A79D0D",
"l$	c #C2B510",
"m$	c #A19A0D",
"n$	c #B1A514",
"o$	c #ADA317",
"p$	c #C7BA1B",
"q$	c #CCC018",
"r$	c #CCC118",
"s$	c #C7BA1A",
"t$	c #ADA018",
"u$	c #ADA017",
"v$	c #ABA017",
"w$	c #B7A81A",
"x$	c #CCC019",
"y$	c #CABA1E",
"z$	c #CEBE1E",
"A$	c #B9A224",
"B$	c #A59817",
"C$	c #C0AB20",
"D$	c #CBBE1B",
"E$	c #CBBA1C",
"F$	c #C8B91E",
"G$	c #AA9D19",
"H$	c #A29715",
"I$	c #AA9E17",
"J$	c #AEA217",
"K$	c #C8BA1C",
"L$	c #CCC119",
"M$	c #CDC318",
"N$	c #C3B020",
"O$	c #A89A19",
"P$	c #ACA016",
"Q$	c #B3A517",
"R$	c #CCC023",
"  . + + + . . . + + + + + + + + +   . . . . @ # . + + . . + + $ ",
"% & * * * * & & * * * * = - * * * ; > , ' ) ! ~ { ] ^ / ( * * _ ",
": < [ * & } | 1 * * * 2 3 4 5 * * 6 7 8 9 0 a b | c d e ^ f * g ",
"h i & * [ i j k c * l m n o p q r s t o u v w x y z A B C D * E ",
"d F A * * A G H I J K L M N O P Q R S T U V W X & & * * & * * Y ",
"Z `  .& * * * * * * ..+.@.#.$.%.&.*.=.-.;.>.,.'.* * * & A & % ).",
"!.~.{.A * * * * * ].^./.(._.:.&.<.[.}.|.1.2.* 3.* * & f B 4.G 5.",
"6.7.8.* * * * * * * * * 9.0.a.b.M c.d.e.f.* D * * * A g.j {.y h.",
"e A & * * * * * & i.* * j.k.l.m.n.o.p.q.r.* s.A * * * z t.u.v.w.",
"x.& 8.8.* & & * * * * y.z.A.B.C.D.E.F.G.H.I.* J.* A g.K.L.L.M.N.",
"O.* P.Q.& * * * * * R.S.T.U.V.W.X.Y.Z.`. +.+++* @+& F ] #+#+$+%+",
"&+*+=+-+;+j >+* ,+'+)+!+~+{+]+^+/+(+_+:+<+[+}+|+1+2+& A A A % 3+",
"4+5+6+7+7+5+* 8+9+0+a+b+c+d+e+f+g+h+i+j+k+l+m+n+o+* A [ * * * p+",
"q+r+*+P.* * s+t+u+v+w+x+y+z+A+B+C+D+E+F+G+H+I+J+K+L+* M+7.[ & N+",
"O+| } * * P+t+Q+R+S+T+U+V+W+X+Y+Z+`+ @.@+@@@#@$@%@t+&@* *@4.=@N.",
"-@A & >+;@>@,@'@)@!@~@{@]@^@/@(@_@:@<@[@}@|@1@2@3@4@5@;@* f | 6@",
"$+] F >+7@8@9@0@)@a@b@c@d@e@f@g@h@i@j@k@l@m@n@o@0@9@8@p@* & 4.q@",
"r@s@` >+t@u@v@w@x@y@z@A@B@C@D@E@F@G@H@I@J@K@L@M@w@v@u@N@* * * O@",
"P@=+Q@>+7@8@v@R@S@T@U@V@W@X@Y@Z@`@ #H+.#+#@###$#R@v@8@p@* * [ 3+",
"%#&#B >+*#=#v@-#;#)@>#,#'#)#!#~#{#]#^#/#(#_#)@:#-#v@=#<#* * [#}#",
"P@|#] 1#>+2#3#4#5#)@)@6#7#8#9#0#a#b#c#d#e#)@)@5#f#3#g#>+h#i#*+j#",
"k#P.F & * >+l#=#m#n#o#)@p#q#r#s#t#r#u#v#)@)@n#m#w#x#>+y#z#K.t.A#",
"B#7.A * & * >+C#D#,@E#o#F#G#H#H#H#H#G#F#o#E#,@D#I#>+J#Q.Q.Q.h K#",
"L#B A * * * * >+M#3#t+N#O#O#P#P#P#P#O#O#N#t+Q#M#>+R#& A A A [ S#",
"T#~ } & * * A * >+U#V#W#X#X#X#X#X#X#X#X#W#V#U#>+Y#{.[ * * * * Y ",
"Z#`##+[ * & i# $.$>++$Q#@$@$@$@$@$@$@$@$Q#+$>+#$7+`#{.* * & [ h.",
"H i ( * * A i ~ i#* >+$$%$&$&$&$&$&$&$%$$$>+* I *$] C 8.& 8.z =$",
"-$* * * * * * * * * ;$>+>$,$,$,$,$,$,$>$>+'$* * & & * * & D )$!$",
"~$A [ & * * * * * & A * >+>+>+>+>+>+>+>+* & & &  .i#A & * * {$]$",
"^$/$($F & [ [ [ & _$:$f F 8.f e e e i#i#* A [ <$[$| e  .& & F }$",
"|$1$2$3$4$ . .5$6$7$8$9$0$&#a$b$c$d$e$f$g$F  .h$i$3$j$k$l$e m$n$",
"o$p$q$r$s$t$u$v$w$x$y$z$A$B$C$D$E$F$G$H$I$u$J$K$L$M$N$O$v$P$Q$R$"};
