/* XPM */
static char * flooro_xpm[] = {
"32 32 181 2",
"  	c #C9C012",
". 	c #CDBE1E",
"+ 	c #CDBC1F",
"@ 	c #CEBE1F",
"# 	c #CEBC1F",
"$ 	c #BFAF1C",
"% 	c #C3B41C",
"& 	c #CBBE1A",
"* 	c #CAC014",
"= 	c #C8BC12",
"- 	c #C7BC12",
"; 	c #C9BC12",
"> 	c #A69D0D",
", 	c #B0A60E",
"' 	c #CBC013",
") 	c #BCB010",
"! 	c #B4A80F",
"~ 	c #C7BA12",
"{ 	c #C9BF13",
"] 	c #C6BD12",
"^ 	c #C1B510",
"/ 	c #C8BE12",
"( 	c #BEB410",
"_ 	c #ADA30E",
": 	c #B4AA0E",
"< 	c #C9BE12",
"[ 	c #C2B711",
"} 	c #B1A60E",
"| 	c #AEA30E",
"1 	c #B9AF0F",
"2 	c #C0B510",
"3 	c #C5BA11",
"4 	c #BFB410",
"5 	c #A59D0D",
"6 	c #99940B",
"7 	c #B4AA0F",
"8 	c #B9AD0F",
"9 	c #AFA50E",
"0 	c #C0B511",
"a 	c #BAB010",
"b 	c #ABA20D",
"c 	c #B8AD0F",
"d 	c #C1B511",
"e 	c #B3A80F",
"f 	c #C5B911",
"g 	c #C7BD12",
"h 	c #C7BE12",
"i 	c #C4BA11",
"j 	c #AAA20D",
"k 	c #A8A00D",
"l 	c #C9C013",
"m 	c #C3BB11",
"n 	c #B1A70E",
"o 	c #C3B711",
"p 	c #C4BC11",
"q 	c #A69D0C",
"r 	c #BAAF10",
"s 	c #C6BC12",
"t 	c #C7BF12",
"u 	c #C6BA11",
"v 	c #C6BA12",
"w 	c #C2B511",
"x 	c #C4B911",
"y 	c #BEB210",
"z 	c #C7BE13",
"A 	c #C8BF12",
"B 	c #A19A0C",
"C 	c #A29B0C",
"D 	c #BDB210",
"E 	c #BBB010",
"F 	c #A79E0D",
"G 	c #A39B0C",
"H 	c #98940B",
"I 	c #9F980C",
"J 	c #B6AB0F",
"K 	c #C5BC12",
"L 	c #9A940B",
"M 	c #C4BB12",
"N 	c #B7AB0F",
"O 	c #BCB210",
"P 	c #C8BE13",
"Q 	c #9C950B",
"R 	c #B2A60E",
"S 	c #C6BE12",
"T 	c #928F0B",
"U 	c #95910B",
"V 	c #A09A0C",
"W 	c #98920B",
"X 	c #94910B",
"Y 	c #B2A80E",
"Z 	c #AEA50E",
"` 	c #B5AA0F",
" .	c #AAA00D",
"..	c #B3A80E",
"+.	c #B7AD0F",
"@.	c #BBAF10",
"#.	c #C0B410",
"$.	c #ACA20D",
"%.	c #97940B",
"&.	c #B0A50E",
"*.	c #A29A0C",
"=.	c #A0980C",
"-.	c #C6BC11",
";.	c #BFB411",
">.	c #C0B411",
",.	c #C9BF12",
"'.	c #CAC012",
").	c #ADA20E",
"!.	c #C2BA11",
"~.	c #A49D0D",
"{.	c #B8AD10",
"].	c #C5BD11",
"^.	c #C4B711",
"/.	c #C5BC11",
"(.	c #938F0B",
"_.	c #C3BA11",
":.	c #A9A00D",
"<.	c #BAAF0F",
"[.	c #C9C112",
"}.	c #ADA40E",
"|.	c #C3B911",
"1.	c #C1B710",
"2.	c #C7BC11",
"3.	c #C2B710",
"4.	c #C9BE11",
"5.	c #B5AB0F",
"6.	c #C8BF13",
"7.	c #C1B911",
"8.	c #B4A810",
"9.	c #B0A510",
"0.	c #BAAB12",
"a.	c #C7BA13",
"b.	c #C3B710",
"c.	c #C4B912",
"d.	c #C6B714",
"e.	c #B1A014",
"f.	c #C0AF16",
"g.	c #B0A50F",
"h.	c #B8AB11",
"i.	c #A89D11",
"j.	c #A99B12",
"k.	c #A79B10",
"l.	c #9C950C",
"m.	c #A19B0B",
"n.	c #BCB20F",
"o.	c #C7B915",
"p.	c #C6B914",
"q.	c #A39711",
"r.	c #A79D0D",
"s.	c #C2B510",
"t.	c #A39C0D",
"u.	c #C2B913",
"v.	c #C7BA1B",
"w.	c #CCC018",
"x.	c #CCC118",
"y.	c #C7BA1A",
"z.	c #ADA018",
"A.	c #ADA017",
"B.	c #ABA017",
"C.	c #B7A81A",
"D.	c #CCC019",
"E.	c #CABA1E",
"F.	c #CEBE1E",
"G.	c #B9A224",
"H.	c #A59817",
"I.	c #C0AB20",
"J.	c #CBBE1B",
"K.	c #CBBA1C",
"L.	c #C8B91E",
"M.	c #AA9D19",
"N.	c #A29715",
"O.	c #AA9E17",
"P.	c #AEA217",
"Q.	c #C8BA1C",
"R.	c #CCC119",
"S.	c #CDC318",
"T.	c #C3B020",
"U.	c #A89A19",
"V.	c #ACA016",
"W.	c #B4A617",
"X.	c #C9C014",
"  . + + + @ @ @ + + + + + + + + + # @ @ @ @ $ % @ + + @ @ + & * ",
"  = - - - - = = - - - - - - - - - - = = ; - > , ' ) ! ~ ; - - { ",
"] ^ / - = ( _ : - < = / = - - - = [ , _ _ _ } , _ | 1 2 ! 3 - - ",
"] 2 = - / 4 5 6 | 7 [ 8 4 / - - / [ 9 _ _ _ 0 a b c < d e f - g ",
"h i < - - < 0 j k _ 2 ! ) < - - - - = = = = = = = = - - = - - l ",
"m n o = - - - - - - - - - - - - - - - - - - - - - - - = < =   { ",
"p q r < - - - - - = < < < = - - = / - < < < = - - - = 3 d s 0 { ",
"t u v - - - - - - - w 0 0 x - - f [ v d 0 0 f - - - < y 5 r b z ",
"A < = - - - - - = f b B C c < < D _ E F B G ) < - - - c H I J K ",
"  = v v - = = - - - 0 ( ( x - - u 8 j a 4 ( x - - < y G L L C M ",
"A - } N = - - - - - < < < = - - = u ( - < < = - - = x ) D D O P ",
"h F Q R E 5 , - = - - - - - - - - - < - - - - - - - = < < <   l ",
"S T U V V T W 9 u = - - - - - - - - - - - - = J c < < / - - - l ",
"] X F } , Y , 7 u = - - - - - - - - - - - - = a Z | _ ` u / = / ",
"h _ (   < < < < - - - - < < < < < < - - < = = < ) b  ...u s ` K ",
"  < = - - - - - - - - < ( N +.N ` r = - @.[ ) #.= = = = = 3 _ K ",
"A ) x = - - - - - - - y G X U Q 5 j 8 +.$.y ..8 < - - - - = s h ",
"p %.9 x - - - - - = u &.B *.=.&.-.;.F F 0 = ~ - = - - - - - -   ",
"m Q B +.< < = - - / = u x x x u = - x x - - o >.x - - - - - / l ",
"m ..d f u o x - - x o x - = = = - - = = = - , =.` = - = = - i ,.",
"m =.) '.c =.).- x F =.*.@./ - - - - - - - - [ ( o - - u u [ F g ",
"!.} x = [ a ( - v D a E o = - - - - - - - - / < / < D > ~.G H g ",
"] u < - = < < - - < < < = - - - - - - - - - - - - = [ N N N +.h ",
"p d < - - - - - = - - - - - - - - - = = = = ; {.1 ; = < < < / A ",
"]., ( = - - < ^.` f < < = - - - = [ } Z &., , =.=.r / - - - - l ",
"/.Z D / - = [ Y _ } Y ..2 = - - / [ 9  .H T (.(.V Z r - - = / A ",
"_.4 ; - - < 4 , [ | F :.D < - - - - ; f &.F :.k <.) e v = v c s ",
"[.- - - - - - - - - - - - - - - - - - - - - - - = = - - = f }.] ",
"  < / = - - - - - = < = = = = < < < < < = = = = o [ < = - - h { ",
"S |.1.x = / / / = 2.3.3 x v 3 2 2 2 [ [ - < / 4.5._ 2 o = = x 6.",
"7.8.9.0.a.o o b.c.d.e.f.g...h.i.j.k.l.m.n.x o o.p.0.q.r.s.2 t.] ",
"u.v.w.x.y.z.A.B.C.D.E.F.G.H.I.J.K.L.M.N.O.A.P.Q.R.S.T.U.B.V.W.X."};
