/* XPM */
static char * house_xpm[] = {
"32 32 723 2",
"  	c #CEBC1F",
". 	c #CEBE1F",
"+ 	c #CDBC1F",
"@ 	c #A99125",
"# 	c #80573A",
"$ 	c #8B563B",
"% 	c #886C2E",
"& 	c #B8A321",
"* 	c #BFAF1C",
"= 	c #C3B41C",
"- 	c #D1C127",
"; 	c #C9C012",
"> 	c #C8BC12",
", 	c #C7BC12",
"' 	c #B1A116",
") 	c #856128",
"! 	c #905540",
"~ 	c #9C5A3D",
"{ 	c #733F33",
"] 	c #8F761D",
"^ 	c #C6BA12",
"/ 	c #C9BC12",
"( 	c #A69D0D",
"_ 	c #B0A60E",
": 	c #CBC013",
"< 	c #BCB010",
"[ 	c #B4A80F",
"} 	c #C7BA12",
"| 	c #CBBA18",
"1 	c #B6B00F",
"2 	c #C0B410",
"3 	c #C8BE12",
"4 	c #BEB410",
"5 	c #ADA30E",
"6 	c #B4AA0E",
"7 	c #C9BE12",
"8 	c #C5B813",
"9 	c #A69219",
"0 	c #8E5130",
"a 	c #924840",
"b 	c #88503E",
"c 	c #96583D",
"d 	c #743E35",
"e 	c #642B2D",
"f 	c #79521F",
"g 	c #A59810",
"h 	c #ACA20E",
"i 	c #B1A60E",
"j 	c #AEA30E",
"k 	c #B9AF0F",
"l 	c #C0B510",
"m 	c #C5BA11",
"n 	c #BAA815",
"o 	c #B7AD0F",
"p 	c #BFB410",
"q 	c #A59D0D",
"r 	c #99940B",
"s 	c #AC9F11",
"t 	c #9B7A1F",
"u 	c #A44E3D",
"v 	c #99433F",
"w 	c #84423D",
"x 	c #87503E",
"y 	c #713D35",
"z 	c #622B2D",
"A 	c #68272B",
"B 	c #744126",
"C 	c #988714",
"D 	c #C0B511",
"E 	c #BAB010",
"F 	c #ABA20D",
"G 	c #B8AD0F",
"H 	c #C1B511",
"I 	c #B3A80F",
"J 	c #C5B911",
"K 	c #BAAB15",
"L 	c #C4B911",
"M 	c #AAA20D",
"N 	c #9B8E11",
"O 	c #855E25",
"P 	c #AC514A",
"Q 	c #B95346",
"R 	c #AC4940",
"S 	c #8D443D",
"T 	c #824D3D",
"U 	c #6F3C34",
"V 	c #672B2E",
"W 	c #752B2D",
"X 	c #7A302F",
"Y 	c #76362C",
"Z 	c #9A801C",
"` 	c #CCBE19",
" .	c #97950B",
"..	c #AFA50E",
"+.	c #C3B711",
"@.	c #AB9718",
"#.	c #9C5D31",
"$.	c #AE4E44",
"%.	c #8F433E",
"&.	c #964741",
"*.	c #9A433F",
"=.	c #864F3D",
"-.	c #703D34",
";.	c #662B2D",
">.	c #722B2E",
",.	c #752F30",
"'.	c #6D2C2D",
").	c #6E2C2D",
"!.	c #8B6720",
"~.	c #C0B313",
"{.	c #CBBA19",
"].	c #9F9D0C",
"^.	c #A49B0C",
"/.	c #BAAF10",
"(.	c #A0841D",
"_.	c #8E4B35",
":.	c #9C4942",
"<.	c #AB4E45",
"[.	c #B24F42",
"}.	c #9E473E",
"|.	c #8E3F3C",
"1.	c #602B2D",
"2.	c #65272B",
"3.	c #6C2B2D",
"4.	c #722D2E",
"5.	c #742D2E",
"6.	c #7A4E25",
"7.	c #B3A316",
"8.	c #C6BC12",
"9.	c #C8B918",
"0.	c #BBB410",
"a.	c #C6BA11",
"b.	c #B9AA15",
"c.	c #916F23",
"d.	c #AF534B",
"e.	c #B55246",
"f.	c #96433C",
"g.	c #8D433F",
"h.	c #AB514B",
"i.	c #B75346",
"j.	c #AA4840",
"k.	c #8C443D",
"l.	c #834E3D",
"m.	c #672B2D",
"n.	c #722A2C",
"o.	c #732D2E",
"p.	c #6F2C2E",
"q.	c #682B2C",
"r.	c #6C2C2D",
"s.	c #762D2F",
"t.	c #7A3C2C",
"u.	c #A08B19",
"v.	c #BEB210",
"w.	c #BEB016",
"x.	c #B09D17",
"y.	c #99612D",
"z.	c #AB4E44",
"A.	c #8C423F",
"B.	c #9F4A44",
"C.	c #B04F44",
"D.	c #A34A40",
"E.	c #9E4D48",
"F.	c #9E4541",
"G.	c #8C443C",
"H.	c #672C2D",
"I.	c #6F292C",
"J.	c #6D2C2E",
"K.	c #682B2D",
"L.	c #722C2E",
"M.	c #702D2E",
"N.	c #702E2E",
"O.	c #90711E",
"P.	c #B3A710",
"Q.	c #98940B",
"R.	c #9F980C",
"S.	c #B6AB0F",
"T.	c #AD9E13",
"U.	c #C6BE12",
"V.	c #9D7F1D",
"W.	c #8C5031",
"X.	c #A34C45",
"Y.	c #B05148",
"Z.	c #AB4C41",
"`.	c #8B403A",
" +	c #974843",
".+	c #B1534B",
"++	c #99453E",
"@+	c #8C3E3C",
"#+	c #83423E",
"$+	c #64272B",
"%+	c #6B2B2D",
"&+	c #702C2E",
"*+	c #7A2F30",
"=+	c #742E2E",
"-+	c #702C2D",
";+	c #7D3031",
">+	c #762F30",
",+	c #754D21",
"'+	c #8B7D11",
")+	c #9A940B",
"!+	c #A29B0C",
"~+	c #A49512",
"{+	c #C1BA11",
"]+	c #9E4A42",
"^+	c #A94C43",
"/+	c #97453E",
"(+	c #8B413D",
"_+	c #AF5046",
":+	c #AE4D42",
"<+	c #93433E",
"[+	c #8F4440",
"}+	c #AC4F46",
"|+	c #B75245",
"1+	c #A94840",
"2+	c #712A2C",
"3+	c #762D2E",
"4+	c #772F2F",
"5+	c #6A2B2D",
"6+	c #692A2C",
"7+	c #742D2F",
"8+	c #792F30",
"9+	c #662A2C",
"0+	c #712D2E",
"a+	c #7C352E",
"b+	c #814F25",
"c+	c #BDB210",
"d+	c #BCB210",
"e+	c #C0AF17",
"f+	c #ACA60D",
"g+	c #A79E0D",
"h+	c #795625",
"i+	c #A05241",
"j+	c #B85448",
"k+	c #9A453C",
"l+	c #88403D",
"m+	c #A34B44",
"n+	c #AF4E43",
"o+	c #8B423E",
"p+	c #A34F4A",
"q+	c #A04642",
"r+	c #8B433C",
"s+	c #854F3D",
"t+	c #682C2E",
"u+	c #702A2D",
"v+	c #6B2C2D",
"w+	c #732D2F",
"x+	c #712D2F",
"y+	c #6E2B2D",
"z+	c #7A3630",
"A+	c #5C6729",
"B+	c #CCBC19",
"C+	c #A39D0C",
"D+	c #928F0B",
"E+	c #7D6619",
"F+	c #824A31",
"G+	c #A44D45",
"H+	c #B25148",
"I+	c #A84B41",
"J+	c #8B413C",
"K+	c #984741",
"L+	c #B15045",
"M+	c #AC4C41",
"N+	c #95443D",
"O+	c #8C3E3D",
"P+	c #85433E",
"Q+	c #713D34",
"R+	c #612A2C",
"S+	c #752E2F",
"T+	c #662B2C",
"U+	c #672B2C",
"V+	c #772E2F",
"W+	c #782F2F",
"X+	c #CBBE19",
"Y+	c #9B970B",
"Z+	c #94910B",
"`+	c #9D4C3F",
" @	c #A44940",
".@	c #964540",
"+@	c #914542",
"@@	c #B25147",
"#@	c #AA4C41",
"$@	c #8F423C",
"%@	c #90443F",
"&@	c #AF5045",
"*@	c #B65144",
"=@	c #A84840",
"-@	c #8E463F",
";@	c #87523F",
">@	c #9B5C3F",
",@	c #734037",
"'@	c #662C2E",
")@	c #6E282C",
"!@	c #732C2E",
"~@	c #6C2C2E",
"{@	c #682A2D",
"]@	c #6D2D2E",
"^@	c #6F2D2D",
"/@	c #845824",
"(@	c #BBAD15",
"_@	c #ADA80E",
":@	c #845B2B",
"<@	c #A75547",
"[@	c #B8544A",
"}@	c #95433B",
"|@	c #8A423F",
"1@	c #AB514A",
"2@	c #AF4F45",
"3@	c #98443B",
"4@	c #8D423E",
"5@	c #AE534C",
"6@	c #874441",
"7@	c #653938",
"8@	c #6F413B",
"9@	c #864B3E",
"0@	c #653C39",
"a@	c #603235",
"b@	c #6D2F31",
"c@	c #6C2B2C",
"d@	c #7E3132",
"e@	c #6E5A15",
"f@	c #B5AA0F",
"g@	c #CBC112",
"h@	c #9D831B",
"i@	c #8C5436",
"j@	c #AA5049",
"k@	c #B25045",
"l@	c #A3493F",
"m@	c #8A413C",
"n@	c #9D4943",
"o@	c #B65248",
"p@	c #A44C44",
"q@	c #6E3B3B",
"r@	c #5A3536",
"s@	c #563234",
"t@	c #583235",
"u@	c #5E3536",
"v@	c #563135",
"w@	c #5B3537",
"x@	c #633737",
"y@	c #663031",
"z@	c #772E2E",
"A@	c #763032",
"B@	c #A19412",
"C@	c #9F503C",
"D@	c #A04840",
"E@	c #93443E",
"F@	c #924540",
"G@	c #B45146",
"H@	c #A6493E",
"I@	c #9A4740",
"J@	c #8B4745",
"K@	c #744041",
"L@	c #5C3535",
"M@	c #693A36",
"N@	c #6D3D37",
"O@	c #6B3E36",
"P@	c #794439",
"Q@	c #623936",
"R@	c #6A3D37",
"S@	c #6B3E38",
"T@	c #5A3336",
"U@	c #743637",
"V@	c #712F30",
"W@	c #6A2A2C",
"X@	c #6A2C2E",
"Y@	c #6F2D2E",
"Z@	c #79541F",
"`@	c #B4A614",
" #	c #99980B",
".#	c #97940B",
"+#	c #7F502D",
"@#	c #A64F42",
"##	c #B24F44",
"$#	c #92423B",
"%#	c #8E423E",
"&#	c #B05047",
"*#	c #8F4640",
"=#	c #5F3535",
"-#	c #5D3635",
";#	c #6E3F38",
">#	c #734138",
",#	c #714138",
"'#	c #76463A",
")#	c #854C3B",
"!#	c #643A37",
"~#	c #784439",
"{#	c #6A3C38",
"]#	c #583536",
"^#	c #633435",
"/#	c #783233",
"(#	c #7E2F30",
"_#	c #7B3031",
":#	c #735A19",
"<#	c #C9BC18",
"[#	c #97970B",
"}#	c #9C950B",
"|#	c #857017",
"1#	c #8A5335",
"2#	c #AF544C",
"3#	c #B65348",
"4#	c #6F3B3A",
"5#	c #643936",
"6#	c #724038",
"7#	c #764438",
"8#	c #744237",
"9#	c #734339",
"0#	c #7B493D",
"a#	c #874D3C",
"b#	c #693C37",
"c#	c #7A4639",
"d#	c #744238",
"e#	c #6B3D37",
"f#	c #633A38",
"g#	c #633637",
"h#	c #673032",
"i#	c #6B2A2C",
"j#	c #7B2F30",
"k#	c #7F3334",
"l#	c #98970B",
"m#	c #B3A80E",
"n#	c #9C5337",
"o#	c #9B463E",
"p#	c #9C4741",
"q#	c #8F4642",
"r#	c #753F3D",
"s#	c #5D3536",
"t#	c #643A36",
"u#	c #754238",
"v#	c #754338",
"w#	c #724037",
"x#	c #714239",
"y#	c #7B4A3D",
"z#	c #794538",
"A#	c #6F3F37",
"B#	c #623937",
"C#	c #603637",
"D#	c #6B3335",
"E#	c #6B2C2E",
"F#	c #6E3328",
"G#	c #76551C",
"H#	c #C4BA11",
"I#	c #C7B518",
"J#	c #A0980C",
"K#	c #874F33",
"L#	c #B0534B",
"M#	c #9D4D47",
"N#	c #5B3335",
"O#	c #593435",
"P#	c #6C3E37",
"Q#	c #774438",
"R#	c #764338",
"S#	c #734137",
"T#	c #633836",
"U#	c #683B37",
"V#	c #693D38",
"W#	c #5B3536",
"X#	c #5F3234",
"Y#	c #7A3233",
"Z#	c #78352A",
"`#	c #75561B",
" $	c #C2B711",
".$	c #A69812",
"+$	c #98950B",
"@$	c #98831C",
"#$	c #7A5034",
"$$	c #6B3D3D",
"%$	c #653A36",
"&$	c #6F4038",
"*$	c #724238",
"=$	c #714137",
"-$	c #714037",
";$	c #6F3F36",
">$	c #6F4139",
",$	c #79493D",
"'$	c #874E3C",
")$	c #734238",
"!$	c #704137",
"~$	c #6C3D38",
"{$	c #613836",
"]$	c #623838",
"^$	c #703A3B",
"/$	c #563620",
"($	c #5D5809",
"_$	c #A39B0C",
":$	c #9F9511",
"<$	c #B3AA0F",
"[$	c #A6981A",
"}$	c #74592A",
"|$	c #774339",
"1$	c #5F3836",
"2$	c #673C37",
"3$	c #693D37",
"4$	c #663B36",
"5$	c #6A3E39",
"6$	c #79483D",
"7$	c #633936",
"8$	c #693E37",
"9$	c #683C37",
"0$	c #663B37",
"a$	c #603836",
"b$	c #81483C",
"c$	c #663B35",
"d$	c #534617",
"e$	c #8B810C",
"f$	c #B7AB0F",
"g$	c #A79B13",
"h$	c #AAA50D",
"i$	c #947E23",
"j$	c #805037",
"k$	c #7F483A",
"l$	c #784639",
"m$	c #774539",
"n$	c #754438",
"o$	c #764337",
"p$	c #79463A",
"q$	c #7F4B3D",
"r$	c #854C3C",
"s$	c #6E4038",
"t$	c #834B39",
"u$	c #7F4939",
"v$	c #804939",
"w$	c #7B4738",
"x$	c #915441",
"y$	c #6D4B28",
"z$	c #70670F",
"A$	c #9E960E",
"B$	c #BEAD16",
"C$	c #B2AD0E",
"D$	c #9E8326",
"E$	c #805039",
"F$	c #7D473A",
"G$	c #653B37",
"H$	c #72443D",
"I$	c #6D433D",
"J$	c #633D39",
"K$	c #633B38",
"L$	c #5E3835",
"M$	c #623A35",
"N$	c #6D4139",
"O$	c #7C493D",
"P$	c #864D3C",
"Q$	c #6A3E38",
"R$	c #7D3F34",
"S$	c #7E392D",
"T$	c #793C31",
"U$	c #945544",
"V$	c #75502B",
"W$	c #675E10",
"X$	c #837C0C",
"Y$	c #B3AB0E",
"Z$	c #AEA50E",
"`$	c #9D8426",
" %	c #7F5039",
".%	c #603B38",
"+%	c #593536",
"@%	c #5F3536",
"#%	c #683A38",
"$%	c #583434",
"%%	c #6A3F38",
"&%	c #7F4A3D",
"*%	c #854D3C",
"=%	c #763A2F",
"-%	c #6E4B44",
";%	c #487278",
">%	c #2D9CA2",
",%	c #376B77",
"'%	c #5E3F40",
")%	c #763B2F",
"!%	c #6C3D37",
"~%	c #945643",
"{%	c #6E4A2B",
"]%	c #726910",
"^%	c #AAA10F",
"/%	c #9D8326",
"(%	c #7C463A",
"_%	c #603937",
":%	c #683E3A",
"<%	c #6D3E39",
"[%	c #733E38",
"}%	c #774039",
"|%	c #6D3C37",
"1%	c #603735",
"2%	c #673D38",
"3%	c #6D4038",
"4%	c #762E23",
"5%	c #65504C",
"6%	c #25A7B7",
"7%	c #01F0FF",
"8%	c #1699B3",
"9%	c #53414A",
"0%	c #763326",
"a%	c #683B36",
"b%	c #6E482B",
"c%	c #756A10",
"d%	c #B4AA10",
"e%	c #A49712",
"f%	c #C9C312",
"g%	c #805139",
"h%	c #7C473A",
"i%	c #5F3736",
"j%	c #653B38",
"k%	c #6F3E39",
"l%	c #743F39",
"m%	c #75413A",
"n%	c #663C37",
"o%	c #6C3F38",
"p%	c #753024",
"q%	c #644F4C",
"r%	c #2495B3",
"s%	c #00C7FF",
"t%	c #187FAC",
"u%	c #533D45",
"v%	c #743528",
"w%	c #673B36",
"x%	c #704B2B",
"y%	c #746B10",
"z%	c #B3A810",
"A%	c #ACA30E",
"B%	c #AA9D13",
"C%	c #C7C112",
"D%	c #7F5139",
"E%	c #613937",
"F%	c #6B3B37",
"G%	c #75403A",
"H%	c #75463F",
"I%	c #764C43",
"J%	c #613A38",
"K%	c #763A2E",
"L%	c #654642",
"M%	c #335E77",
"N%	c #1D6F9E",
"O%	c #2B4B6C",
"P%	c #5A3739",
"Q%	c #783F31",
"R%	c #6F4B2B",
"S%	c #756B10",
"T%	c #B2A810",
"U%	c #C7BE12",
"V%	c #CAB919",
"W%	c #BCB510",
"X%	c #C3B911",
"Y%	c #C1B710",
"Z%	c #9C8126",
"`%	c #5C3736",
" &	c #693B39",
".&	c #733F3C",
"+&	c #6E3C3B",
"@&	c #643838",
"#&	c #5C3636",
"$&	c #673E39",
"%&	c #7D493E",
"&&	c #6D3F38",
"*&	c #6E4138",
"=&	c #794537",
"-&	c #793F31",
";&	c #7B3C2D",
">&	c #794033",
",&	c #774538",
"'&	c #714339",
")&	c #955543",
"!&	c #704A2B",
"~&	c #726810",
"{&	c #C4B417",
"]&	c #A39E0D",
"^&	c #B4A810",
"/&	c #B0A510",
"(&	c #957927",
"_&	c #81503C",
":&	c #7F493D",
"<&	c #5F3936",
"[&	c #553928",
"}&	c #56451A",
"|&	c #5C4E15",
"1&	c #524316",
"2&	c #544617",
"3&	c #4E3626",
"4&	c #7F4B3F",
"5&	c #8A5040",
"6&	c #6A3E37",
"7&	c #6D3E35",
"8&	c #784636",
"9&	c #764436",
"0&	c #774437",
"a&	c #724236",
"b&	c #633935",
"c&	c #975746",
"d&	c #6D482E",
"e&	c #62590D",
"f&	c #ADA10E",
"g&	c #A19A0D",
"h&	c #B1A514",
"i&	c #ADA317",
"j&	c #C7BA1B",
"k&	c #CCC018",
"l&	c #A29815",
"m&	c #6E6215",
"n&	c #574C14",
"o&	c #655C10",
"p&	c #69630F",
"q&	c #796F11",
"r&	c #8B8311",
"s&	c #887D14",
"t&	c #8B8014",
"u&	c #746517",
"v&	c #605710",
"w&	c #685A17",
"x&	c #675A17",
"y&	c #706513",
"z&	c #746B13",
"A&	c #625A10",
"B&	c #5D570E",
"C&	c #625B0F",
"D&	c #645C0F",
"E&	c #655E0F",
"F&	c #746B12",
"G&	c #736B11",
"H&	c #685C16",
"I&	c #655716",
"J&	c #746A12",
"K&	c #9A9015",
"L&	c #ACA016",
"M&	c #B3A517",
"N&	c #CCC023",
"  . + + + . . . + + + + + @ # $ % & . . . . * = . + + . . + + - ",
"; > , , , , > > , , , , ' ) ! ~ { ] ^ > / , ( _ : < [ } / , , | ",
"1 2 3 , > 4 5 6 , 7 8 9 0 a b c d e f g h 5 i _ 5 j k l [ m , n ",
"o p > , 3 p q r j s t u v w x c y z A B C h D E F G 7 H I J , K ",
"k L 7 , , 7 D M N O P Q R S T c U V W X Y Z ^ > > > , , > , , ` ",
" ...+.> , , , @.#.$.%.&.*.S =.c -.;.>.,.'.).!.~., , , > 7 > ; {.",
"].^./.7 , ~.(._.:.<.[.}.|.w b c y 1.2.3.4.5.'.6.7.^ > m H 8.D 9.",
"0.a.^ , b.c.d.e.f.g.h.i.j.k.l.c U m.n.o.p.q.r.s.t.u., v.q /.F w.",
"l 7 > x.y.z.A.B.C.D.A.E.F.G.=.c -.H.I.J.K.L.s.M.J.N.O.P.Q.R.S.T.",
"U.> V.W.X.Y.Z.`. +.+C.++@+#+x c y 1.$+%+&+*+=+q.-+;+>+,+'+)+!+~+",
"{+, ]+^+/+(+_+:+<+[+}+|+1+k.l.c U ;.2+3+4+5+6+7+8+9+0+a+b+c+d+e+",
"f+g+h+i+j+k+l+m+n+}.o+p+q+r+s+c -.t+u+M.v+p.w+x+v+y+5.z+A+7 ; B+",
"C+D+E+F+G+H+I+J+K+L+M+N+O+P+x c Q+R+2.5+S+M.T+U+V+W+p.z+A+, , X+",
"Y+Z+`+ @.@+@@@#@$@%@&@*@=@-@;@>@,@'@)@!@4+~@{@&+8+]@^@z+/@3 > (@",
"_@5 :@<@[@}@|@1@2@3@4@5@6@7@8@9@0@a@b@-+9+c@o.M.m.5+d@z+e@8.f@~+",
"g@7 h@i@j@k@l@m@n@o@p@q@r@s@t@u@v@w@x@y@5.z@'.9+).S+A@z+A+m 5 B@",
"d+< C@D@E@F@G@H@I@J@K@L@M@N@O@P@Q@R@S@T@U@V@W@&+8+X@Y@z+Z@> 8.`@",
" #.#+#@###$#%#&#*#=#-#;#>#,#'#)#!#R@~#{#]#^#/#(#Y@5+_#z+:#, , <#",
"[#}#|#1#2#3#D@4#w@5#6#7#8#9#0#a#5#b#c#d#e#f#g#h#i#j#k#z+A+, 3 B+",
"l#m#n#o#p#q#r#s#t#d#u#v#w#x#y#a#5#R@c#v#z#A#B#C#D#E#o.F#G#, H#I#",
"[#J#K#L#M#N#O#P#7#Q#R#v#S#9#0#a#T#U#c#7#d#R#d#V#W#X#Y#Z#`# $g+.$",
"+$i @$#$$$-#%$&$*$=$-$=$;$>$,$'$Q@t#)$=$=$!$,#~${$]$^$/$($_$Q.:$",
"<$a.[$}$-$|$1$2$R@3$3$3$4$5$6$'$7$1$8$2$2$2$9$0$a$b$c$d$e$f$o g$",
"h$H 7 i$j$k$&$7#l$m$7#n$o$p$q$r$s$n$t$u$u$v$t$w$3$x$y$z$A$7 3 B$",
"C$_ 4 D$E$F$G$H$I$J$K$L$M$N$O$P$R@Q$~#R$S$T$8#s$%$U$V$W$X$, , ` ",
"Y$Z$c+`$ %F$G$.%+%@%#%v@$%%%&%*%,#=%-%;%>%,%'%)%!%~%{%]%^%> 3 w.",
"M p / /%E$(%_%:%<%[%}%|%1%2%O$P$3%4%5%6%7%8%9%0%a%~%b%c%d%^ G e%",
"f%, , /%g%h%i%j%k%l%m%8@a$n%O$P$o%p%q%r%s%t%u%v%w%~%x%y%z%J A%B%",
"C%7 3 /%D%F$7$E%F%G%H%I%J%4$q$*%*$K%L%M%N%O%P%Q%P#~%R%S%T%, U%V%",
"W%X%Y%Z%g%h%a$`% &.&+&@&#&$&%&a#&&*&=&-&;&>&,&'&0$)&!&~&z%> L {&",
"]&^&/&(&_&:&<&[&}&|&1&2&3&2%4&5&6&7&8&9&0&0&=&a&b&c&d&e&f&l g&h&",
"i&j&k&l&m&n&o&p&q&r&s&t&u&v&w&x&y&z&A&B&C&D&E&F&G&H&I&J&K&L&M&N&"};
