/* XPM */
static char * player_xpm[] = {
"32 32 530 2",
"  	c #CEBC1F",
". 	c #CEBE1F",
"+ 	c #CDBC1F",
"@ 	c #BFAF1C",
"# 	c #C3B41C",
"$ 	c #D1C127",
"% 	c #C9C012",
"& 	c #C8BC12",
"* 	c #C7BC12",
"= 	c #C9BC12",
"- 	c #A69D0D",
"; 	c #B0A60E",
"> 	c #CBC013",
", 	c #BCB010",
"' 	c #B4A80F",
") 	c #C7BA12",
"! 	c #CBBA18",
"~ 	c #B6B00F",
"{ 	c #C0B410",
"] 	c #C8BE12",
"^ 	c #BEB410",
"/ 	c #ADA30E",
"( 	c #B4AA0E",
"_ 	c #C9BE12",
": 	c #C7B81C",
"< 	c #B1A60E",
"[ 	c #AEA30E",
"} 	c #B9AF0F",
"| 	c #C0B510",
"1 	c #C5BA11",
"2 	c #BAA815",
"3 	c #B7AD0F",
"4 	c #BFB410",
"5 	c #A59D0D",
"6 	c #99940B",
"7 	c #433C43",
"8 	c #1F101D",
"9 	c #261724",
"0 	c #251724",
"a 	c #221320",
"b 	c #231421",
"c 	c #261725",
"d 	c #251623",
"e 	c #1F121E",
"f 	c #5E545C",
"g 	c #BAB010",
"h 	c #ABA20D",
"i 	c #B8AD0F",
"j 	c #C1B511",
"k 	c #B3A80F",
"l 	c #C5B911",
"m 	c #BAAB15",
"n 	c #C4B911",
"o 	c #C0B511",
"p 	c #AAA20D",
"q 	c #A89F12",
"r 	c #3A323D",
"s 	c #432125",
"t 	c #5F3432",
"u 	c #66403F",
"v 	c #653E3D",
"w 	c #5B302E",
"x 	c #5E3432",
"y 	c #67403F",
"z 	c #653D3D",
"A 	c #5B2F2D",
"B 	c #381D24",
"C 	c #504955",
"D 	c #CCBE19",
"E 	c #97950B",
"F 	c #AFA50E",
"G 	c #C3B711",
"H 	c #423942",
"I 	c #452226",
"J 	c #613533",
"K 	c #704541",
"L 	c #724744",
"M 	c #714743",
"N 	c #6E423E",
"O 	c #6F4340",
"P 	c #724743",
"Q 	c #582E2D",
"R 	c #402329",
"S 	c #504A55",
"T 	c #CBBA19",
"U 	c #9F9D0C",
"V 	c #A49B0C",
"W 	c #BAAF10",
"X 	c #1F1020",
"Y 	c #5D3332",
"Z 	c #714440",
"` 	c #704744",
" .	c #704643",
"..	c #693D3A",
"+.	c #6C3F3D",
"@.	c #70433E",
"#.	c #4A262A",
"$.	c #231C2C",
"%.	c #C6BC12",
"&.	c #C8B918",
"*.	c #BBB410",
"=.	c #C6BA11",
"-.	c #C6BA12",
";.	c #655B5B",
">.	c #351E27",
",.	c #673F3E",
"'.	c #6F4542",
").	c #6A3E3B",
"!.	c #61312D",
"~.	c #643531",
"{.	c #6C413E",
"].	c #724844",
"^.	c #593537",
"/.	c #33212C",
"(.	c #817A64",
"_.	c #BEB210",
":.	c #BEB016",
"<.	c #311A24",
"[.	c #5E322F",
"}.	c #6E4441",
"|.	c #6B3E3B",
"1.	c #60302C",
"2.	c #562927",
"3.	c #582A27",
"4.	c #633431",
"5.	c #6B403C",
"6.	c #542B2A",
"7.	c #2A1D29",
"8.	c #98940B",
"9.	c #9F980C",
"0.	c #B6AB0F",
"a.	c #AD9E13",
"b.	c #C6BE12",
"c.	c #301923",
"d.	c #6D413E",
"e.	c #704642",
"f.	c #704743",
"g.	c #693D39",
"h.	c #592A27",
"i.	c #301620",
"j.	c #3A1B21",
"k.	c #62322E",
"l.	c #6F4441",
"m.	c #714642",
"n.	c #633B39",
"o.	c #A39B0C",
"p.	c #9A940B",
"q.	c #A29B0C",
"r.	c #A49512",
"s.	c #C1BA11",
"t.	c #B7AB0F",
"u.	c #341E29",
"v.	c #704644",
"w.	c #6B3B37",
"x.	c #512525",
"y.	c #361B22",
"z.	c #62463D",
"A.	c #533835",
"B.	c #3A1B23",
"C.	c #633634",
"D.	c #714540",
"E.	c #724845",
"F.	c #734845",
"G.	c #BDB210",
"H.	c #BCB210",
"I.	c #C0AF17",
"J.	c #ACA60D",
"K.	c #A79E0D",
"L.	c #9C950B",
"M.	c #B2A60E",
"N.	c #BBB010",
"O.	c #2F1722",
"P.	c #6B3E3A",
"Q.	c #563337",
"R.	c #47272C",
"S.	c #422327",
"T.	c #543C38",
"U.	c #AF8461",
"V.	c #957056",
"W.	c #482F30",
"X.	c #442226",
"Y.	c #492A2F",
"Z.	c #5C3738",
"`.	c #6E3F3B",
" +	c #623836",
".+	c #221220",
"++	c #CCBC19",
"@+	c #A39D0C",
"#+	c #928F0B",
"$+	c #95910B",
"%+	c #A09A0C",
"&+	c #98920B",
"*+	c #352029",
"=+	c #542827",
"-+	c #512727",
";+	c #372027",
">+	c #180F20",
",+	c #3D2B2F",
"'+	c #BC906A",
")+	c #D8A677",
"!+	c #D9A677",
"~+	c #9E785C",
"{+	c #231724",
"]+	c #201523",
"^+	c #402227",
"/+	c #4F2627",
"(+	c #322630",
"_+	c #CBBE19",
":+	c #9B970B",
"<+	c #94910B",
"[+	c #B2A80E",
"}+	c #6E665D",
"|+	c #1E0F1E",
"1+	c #271521",
"2+	c #84614C",
"3+	c #5F463E",
"4+	c #423337",
"5+	c #DAB18B",
"6+	c #F5C699",
"7+	c #F8C99B",
"8+	c #B69377",
"9+	c #2E212B",
"0+	c #81604C",
"a+	c #6A4C41",
"b+	c #1B0B1A",
"c+	c #2A1C2A",
"d+	c #8A8656",
"e+	c #B5AA0F",
"f+	c #BBAD15",
"g+	c #ADA80E",
"h+	c #251A26",
"i+	c #7C5C4A",
"j+	c #C49469",
"k+	c #735445",
"l+	c #3F3038",
"m+	c #DEB793",
"n+	c #FCCFA3",
"o+	c #FFD1A4",
"p+	c #B8967D",
"q+	c #9F7759",
"r+	c #B88B65",
"s+	c #5E453C",
"t+	c #261F2E",
"u+	c #AAA00D",
"v+	c #B3A80E",
"w+	c #CBC112",
"x+	c #605758",
"y+	c #8D6C56",
"z+	c #CF9F75",
"A+	c #A78268",
"B+	c #846A5E",
"C+	c #E7BD97",
"D+	c #F9CDA1",
"E+	c #FBCEA2",
"F+	c #CFA989",
"G+	c #7A6157",
"H+	c #C29874",
"I+	c #C0936D",
"J+	c #7B6153",
"K+	c #645E63",
"L+	c #A19412",
"M+	c #C7BA17",
"N+	c #322C37",
"O+	c #947D6A",
"P+	c #E6C199",
"Q+	c #F4C79D",
"R+	c #F8CAA0",
"S+	c #F8CBA0",
"T+	c #F9CBA0",
"U+	c #F7CA9F",
"V+	c #F1C69C",
"W+	c #DCBB95",
"X+	c #6B5951",
"Y+	c #443F4C",
"Z+	c #A9A246",
"`+	c #B9AD0F",
" @	c #B4A614",
".@	c #99980B",
"+@	c #97940B",
"@@	c #222431",
"#@	c #233F41",
"$@	c #8F947B",
"%@	c #F2C99E",
"&@	c #F2C99D",
"*@	c #F0C89C",
"=@	c #F4C99E",
"-@	c #E2C199",
";@	c #667C6C",
">@	c #152932",
",@	c #423D4D",
"'@	c #B9B03C",
")@	c #C9BC18",
"!@	c #97970B",
"~@	c #A19A0C",
"{@	c #1E202F",
"]@	c #012C34",
"^@	c #35695A",
"/@	c #6E966C",
"(@	c #78A869",
"_@	c #79AA69",
":@	c #729C6B",
"<@	c #6D906D",
"[@	c #638A6A",
"}@	c #205951",
"|@	c #001C29",
"1@	c #403D4A",
"2@	c #BAAC42",
"3@	c #C0B411",
"4@	c #98970B",
"5@	c #7F7075",
"6@	c #6D5C57",
"7@	c #6E7264",
"8@	c #46765F",
"9@	c #1D764D",
"0@	c #2B9449",
"a@	c #2E9848",
"b@	c #278A4A",
"c@	c #1C784C",
"d@	c #1F6F50",
"e@	c #587A66",
"f@	c #6F695E",
"g@	c #6E5F5C",
"h@	c #89797A",
"i@	c #A09836",
"j@	c #C4BA11",
"k@	c #C7B518",
"l@	c #A0980C",
"m@	c #CAC012",
"n@	c #ADA20E",
"o@	c #757365",
"p@	c #44373B",
"q@	c #DBB28F",
"r@	c #FECFA1",
"s@	c #929E78",
"t@	c #22764D",
"u@	c #2C8C4A",
"v@	c #33974A",
"w@	c #349949",
"x@	c #2A8B49",
"y@	c #327954",
"z@	c #C0B289",
"A@	c #FFD2A4",
"B@	c #B29077",
"C@	c #342C38",
"D@	c #9C9747",
"E@	c #C2B711",
"F@	c #A69812",
"G@	c #98950B",
"H@	c #7A7367",
"I@	c #47393E",
"J@	c #D6AF8D",
"K@	c #F7CDA4",
"L@	c #8EA07E",
"M@	c #1D7155",
"N@	c #1F7654",
"O@	c #2C8D51",
"P@	c #329A50",
"Q@	c #288D51",
"R@	c #307B5B",
"S@	c #BAB38F",
"T@	c #F8CFA4",
"U@	c #B08E76",
"V@	c #372E3B",
"W@	c #A39C48",
"X@	c #A49D0D",
"Y@	c #9F9511",
"Z@	c #B3AA0F",
"`@	c #B4AB2A",
" #	c #837E7F",
".#	c #5E5355",
"+#	c #528AA0",
"@#	c #2F9EC0",
"##	c #098BB0",
"$#	c #0989AD",
"%#	c #0E7E97",
"&#	c #11899D",
"*#	c #0D95AE",
"=#	c #108FB2",
"-#	c #3DA2C4",
";#	c #557685",
">#	c #665858",
",#	c #918C91",
"'#	c #A79B13",
")#	c #AAA50D",
"!#	c #C4BA2D",
"~#	c #191D33",
"{#	c #0069A2",
"]#	c #00A0EA",
"^#	c #0098E2",
"/#	c #0083C9",
"(#	c #014D84",
"_#	c #005B97",
":#	c #008CD4",
"<#	c #009BE5",
"[#	c #009DE7",
"}#	c #004878",
"|#	c #342E3D",
"1#	c #B8AE1F",
"2#	c #BEAD16",
"3#	c #B2AD0E",
"4#	c #C1B522",
"5#	c #636164",
"6#	c #17182C",
"7#	c #0F5882",
"8#	c #1483B9",
"9#	c #0F75AC",
"0#	c #055287",
"a#	c #1B2C46",
"b#	c #143557",
"c#	c #065D95",
"d#	c #127CB1",
"e#	c #1481B6",
"f#	c #0C3E63",
"g#	c #292231",
"h#	c #797879",
"i#	c #A29B20",
"j#	c #B3AB0E",
"k#	c #AEA50E",
"l#	c #80807F",
"m#	c #626266",
"n#	c #231D2D",
"o#	c #402C35",
"p#	c #593F41",
"q#	c #45333B",
"r#	c #212236",
"s#	c #55565E",
"t#	c #434552",
"u#	c #232133",
"v#	c #50393E",
"w#	c #573E41",
"x#	c #32222E",
"y#	c #302C3A",
"z#	c #737274",
"A#	c #838483",
"B#	c #787878",
"C#	c #737374",
"D#	c #615E63",
"E#	c #6C5F5F",
"F#	c #756360",
"G#	c #6E5F5E",
"H#	c #615C5F",
"I#	c #6D6B6E",
"J#	c #625A5D",
"K#	c #72615F",
"L#	c #756260",
"M#	c #675D5F",
"N#	c #646367",
"O#	c #777777",
"P#	c #7B7B7B",
"Q#	c #A49712",
"R#	c #C9C312",
"S#	c #919082",
"T#	c #797979",
"U#	c #7A7B7B",
"V#	c #797A7B",
"W#	c #7A7A79",
"X#	c #7B7C7B",
"Y#	c #797B7B",
"Z#	c #7C7C7C",
"`#	c #9B9983",
" $	c #ACA30E",
".$	c #AA9D13",
"+$	c #C7C112",
"@$	c #949388",
"#$	c #919085",
"$$	c #929186",
"%$	c #98978A",
"&$	c #C7BE12",
"*$	c #CAB919",
"=$	c #BCB510",
"-$	c #C3B911",
";$	c #C1B710",
">$	c #C9BE11",
",$	c #B5AB0F",
"'$	c #C4B417",
")$	c #A39E0D",
"!$	c #B4A810",
"~$	c #B0A510",
"{$	c #BAAB12",
"]$	c #C7BA13",
"^$	c #C3B710",
"/$	c #C4B912",
"($	c #C6B714",
"_$	c #B1A014",
":$	c #C0AF16",
"<$	c #B0A50F",
"[$	c #B8AB11",
"}$	c #A89D11",
"|$	c #A99B12",
"1$	c #A79B10",
"2$	c #9C950C",
"3$	c #A19B0B",
"4$	c #BCB20F",
"5$	c #C7B915",
"6$	c #C6B914",
"7$	c #A39711",
"8$	c #A79D0D",
"9$	c #C2B510",
"0$	c #A19A0D",
"a$	c #B1A514",
"b$	c #ADA317",
"c$	c #C7BA1B",
"d$	c #CCC018",
"e$	c #CCC118",
"f$	c #C7BA1A",
"g$	c #ADA018",
"h$	c #ADA017",
"i$	c #ABA017",
"j$	c #B7A81A",
"k$	c #CCC019",
"l$	c #CABA1E",
"m$	c #CEBE1E",
"n$	c #B9A224",
"o$	c #A59817",
"p$	c #C0AB20",
"q$	c #CBBE1B",
"r$	c #CBBA1C",
"s$	c #C8B91E",
"t$	c #AA9D19",
"u$	c #A29715",
"v$	c #AA9E17",
"w$	c #AEA217",
"x$	c #C8BA1C",
"y$	c #CCC119",
"z$	c #CDC318",
"A$	c #C3B020",
"B$	c #A89A19",
"C$	c #ACA016",
"D$	c #B3A517",
"E$	c #CCC023",
"  . + + + . . . + + + + + + + + +   . . . . @ # . + + . . + + $ ",
"% & * * * * & & * * * * * * * * * * & & = * - ; > , ' ) = * * ! ",
"~ { ] * & ^ / ( * _ : * * * * * * * * * * * < ; / [ } | ' 1 * 2 ",
"3 4 & * ] 4 5 6 [ * * 7 8 9 0 a b c d e f * * g h i _ j k l * m ",
"} n _ * * _ o p q * r s t u v w x y z A B C * * & & * * & * * D ",
"E F G & * * * * * H I J K L M N O L P N Q R S * * * * & _ & % T ",
"U V W _ * * * * * X Y Z `  . ...+.`  .` @.#.$.* * * & 1 j %.o &.",
"*.=.-.* * * * * ;.>.,.L  .'.).!.~.{. . .].^./.(.* * _ _.5 W h :.",
"| _ & * * * * * <.[.}.` '.|.1.2.3.4.}.` ` 5.6.7.* * * i 8.9.0.a.",
"b.& -.-.* & & * c.d.e.f.g.!.h.i.j.k.l.`  .m.n.b * _ _.o.p.p.q.r.",
"s.* < t.& * * * u.v.].L w.x.y.z.A.B.C.D.E.F.y c * & n , G.G.H.I.",
"J.K.L.M.N.5 ; * O.P.P.Q.R.S.T.U.V.W.X.Y.Z.`. +.+* * & _ _ _ % ++",
"@+#+$+%+%+#+&+* *+=+-+;+>+,+'+)+!+~+{+]+^+=+/+(+* _ _ ] * * * _+",
":+<+K.< ; [+; * }+|+1+2+3+4+5+6+7+8+9+0+a+b+c+d+* [ / e+=.] & f+",
"g+/ ^ % _ _ _ _ * h+i+j+k+l+m+n+o+p+9+q+r+s+t+* , h u+v+=.%.e+r.",
"w+_ & * * * * * * x+y+z+A+B+C+D+E+F+G+H+I+J+K+* & & & & & 1 / L+",
"H., n & * * * * M+* N+O+P+Q+R+S+T+U+V+W+X+Y+Z+`+_ * * * * & %. @",
".@+@F n * * * * * * @@#@$@%@&@*@*@=@-@;@>@,@'@* & * * * * * * )@",
"!@L.~@3 _ _ & * * * {@]@^@/@(@_@:@<@[@}@|@1@2@3@n * * * * * ] ++",
"4@v+j l =.G n * * 5@6@7@8@9@0@a@b@c@d@e@f@g@h@i@e+& * & & * j@k@",
"!@l@, m@i l@n@* o@p@q@r@s@t@u@v@w@x@y@z@A@B@C@D@G * * =.=.E@K.F@",
"G@< n & E@g ^ * H@I@J@K@L@M@N@O@P@Q@R@S@T@U@V@W@] _ G.- X@o.8.Y@",
"Z@=._ * & _ _ * `@ #.#+#@###$#%#&#*#=#-#;#>#,#`@* & E@t.t.t.3 '#",
")#j _ * * * * * !#`@~#{#]#^#/#(#_#:#<#[#}#|#`@1#} = & _ _ _ ] 2#",
"3#; ^ & * * _ 4#`@5#6#7#8#9#0#a#b#c#d#e#f#g#h#`@i#W ] * * * * D ",
"j#k#G.] * & E@`@l#m#n#o#p#q#r#s#t#u#v#w#x#y#z#A#`@k#W * * & ] :.",
"p 4 = * * _ 4 `@B#C#D#E#F#G#H#z#I#J#K#L#M#N#O#P#`@, k -.& -.i Q#",
"R#* * * * * * `@S#T#P#U#V#U#P#T#W#X#Y#Y#U#W#Z#`#`@& * * & l  $.$",
"+$_ ] & * * * * `@@$#$$$$$$$$$$$$$$$$$$$$$#$%$`@G E@_ & * * &$*$",
"=$-$;$n & ] ] ] & `@`@`@`@`@`@`@`@`@`@`@`@`@`@>$,$/ | G & & n '$",
")$!$~${$]$G G ^$/$($_$:$<$v+[$}$|$1$2$3$4$n G 5$6${$7$8$9$| 0$a$",
"b$c$d$e$f$g$h$i$j$k$l$m$n$o$p$q$r$s$t$u$v$h$w$x$y$z$A$B$i$C$D$E$"};
